<svg width="39" height="50" viewBox="0 0 39 50" fill="none" xmlns="http://www.w3.org/2000/svg">
<g clip-path="url(#clip0_10418_10979)">
<g clip-path="url(#clip1_10418_10979)">
<path d="M36.6363 14.4775C36.6363 14.4775 36.6388 16.9327 36.4814 17.7486C36.3544 18.4062 36.0531 19.2788 35.7671 19.955C35.6164 20.3104 35.4709 20.6109 35.3566 20.7979C35.0248 21.3404 35.9778 22.9747 35.9778 22.9747C35.9778 22.9747 37.348 25.0212 37.3785 25.2201C37.409 25.4189 37.5012 26.201 36.076 26.4616C34.6508 26.7223 35.1239 28.0096 35.3321 28.255C35.5403 28.5005 35.4328 29.2359 34.4823 29.3739C34.4823 29.3739 35.7239 30.2939 33.961 31.0446C33.961 31.0446 33.5928 31.213 33.7773 32.0559C33.9618 32.8989 34.6973 34.9834 31.4017 34.8759C31.4017 34.8759 29.169 34.4502 28.1069 34.0584C27.0439 33.6665 24.3034 33.1452 22.7749 34.5806C21.2465 36.0159 20.836 38.1597 22.1783 39.8194C23.5206 41.4791 26.8018 42.0326 26.8018 42.0326C26.8018 42.0326 29.5287 42.8848 30.7221 44.4184C31.9154 45.952 30.5858 48.7897 29.3806 49.3187C29.3806 49.3187 29.4847 46.6155 23.1922 45.5237C17.129 44.4717 9.2022 42.1096 7.59246 41.4097C5.98273 40.7097 3.83049 38.0641 2.97145 35.7121C2.11242 33.3601 0.319875 28.6536 1.77642 25.4046C1.77642 25.4046 -2.38249 12.5224 8.03341 4.62101C16.0652 -1.47262 26.6385 0.8565 26.6385 0.8565C26.6385 0.8565 33.0884 2.09893 35.7891 4.34426C38.1555 6.31115 40.5954 9.9284 36.6354 14.4766L36.6363 14.4775Z" fill="#F4DBA4"/>
<path d="M36.6363 14.4775C36.6363 14.4775 36.6388 16.9327 36.4814 17.7486C36.3544 18.4062 36.0531 19.2788 35.7671 19.955C35.6164 20.3104 35.4709 20.6109 35.3566 20.7979C35.0248 21.3404 35.9778 22.9747 35.9778 22.9747C35.9778 22.9747 37.348 25.0212 37.3785 25.2201C37.409 25.4189 37.5012 26.201 36.076 26.4616C34.6508 26.7223 35.1239 28.0096 35.3321 28.255C35.5403 28.5005 35.4328 29.2359 34.4823 29.3739C34.4823 29.3739 35.7239 30.2939 33.961 31.0446C33.961 31.0446 33.5928 31.213 33.7773 32.0559C33.9618 32.8989 34.6973 34.9834 31.4017 34.8759C31.4017 34.8759 29.169 34.4502 28.1069 34.0584C27.0439 33.6665 24.3034 33.1452 22.7749 34.5806C21.2465 36.0159 20.836 38.1597 22.1783 39.8194C23.5206 41.4791 26.8018 42.0326 26.8018 42.0326C26.8018 42.0326 29.5287 42.8848 30.7221 44.4184C31.9154 45.952 30.5858 48.7897 29.3806 49.3187C29.3806 49.3187 29.4847 46.6155 23.1922 45.5237C17.129 44.4717 9.2022 42.1096 7.59246 41.4097C5.98273 40.7097 3.83049 38.0641 2.97145 35.7121C2.11242 33.3601 0.319875 28.6536 1.77642 25.4046C1.77642 25.4046 -2.38249 12.5224 8.03341 4.62101C16.0652 -1.47262 26.6385 0.8565 26.6385 0.8565C26.6385 0.8565 33.0884 2.09893 35.7891 4.34426C38.1555 6.31115 40.5954 9.9284 36.6354 14.4766L36.6363 14.4775Z" fill="url(#paint0_linear_10418_10979)"/>
<path d="M36.6363 14.4775C36.6363 14.4775 36.6388 16.9327 36.4814 17.7486C36.3544 18.4062 36.0531 19.2788 35.7671 19.955C35.6164 20.3104 35.4709 20.6109 35.3566 20.7979C35.0248 21.3404 35.9778 22.9747 35.9778 22.9747C35.9778 22.9747 37.348 25.0212 37.3785 25.2201C37.409 25.4189 37.5012 26.201 36.076 26.4616C34.6508 26.7223 35.1239 28.0096 35.3321 28.255C35.5403 28.5005 35.4328 29.2359 34.4823 29.3739C34.4823 29.3739 35.7239 30.2939 33.961 31.0446C33.961 31.0446 33.5928 31.213 33.7773 32.0559C33.9618 32.8989 34.6973 34.9834 31.4017 34.8759C31.4017 34.8759 29.169 34.4502 28.1069 34.0584C27.0439 33.6665 24.3034 33.1452 22.7749 34.5806C21.2465 36.0159 20.836 38.1597 22.1783 39.8194C23.5206 41.4791 26.8018 42.0326 26.8018 42.0326C26.8018 42.0326 29.5287 42.8848 30.7221 44.4184C31.9154 45.952 30.5858 48.7897 29.3806 49.3187C29.3806 49.3187 29.4847 46.6155 23.1922 45.5237C17.129 44.4717 9.2022 42.1096 7.59246 41.4097C5.98273 40.7097 3.83049 38.0641 2.97145 35.7121C2.11242 33.3601 0.319875 28.6536 1.77642 25.4046C1.77642 25.4046 -2.38249 12.5224 8.03341 4.62101C16.0652 -1.47262 26.6385 0.8565 26.6385 0.8565C26.6385 0.8565 33.0884 2.09893 35.7891 4.34426C38.1555 6.31115 40.5954 9.9284 36.6354 14.4766L36.6363 14.4775Z" fill="url(#paint1_linear_10418_10979)"/>
<path d="M35.7543 19.9635C35.2931 19.3016 34.2978 19.0816 33.6012 19.4912C33.1713 19.7443 32.8421 20.2021 32.3503 20.2868C32.7295 20.2208 33.3558 20.6583 33.6207 20.8894C34.1615 21.3608 34.4933 22.1699 34.8445 22.7869C35.2609 23.5181 35.6418 24.2764 35.8703 25.0897C36.004 25.5679 36.0751 26.1307 35.7662 26.5192C36.1191 26.4693 36.4805 26.4168 36.7945 26.2475C37.1085 26.0783 37.37 25.766 37.3759 25.4097C37.381 25.1067 37.2066 24.8333 37.0399 24.5802C36.7835 24.1926 36.527 23.8058 36.2706 23.4182C35.9244 22.8952 35.5715 22.3595 35.4166 21.7518C35.2617 21.1441 35.3388 20.4391 35.7695 19.9838C35.7645 19.977 35.7602 19.9694 35.7552 19.9626L35.7543 19.9635Z" fill="url(#paint2_linear_10418_10979)"/>
<path d="M33.9077 15.3297C33.9077 15.3297 38.4585 15.1419 38.5744 10.9804C38.5744 10.9804 37.4488 13.9375 33.9077 15.3297Z" fill="#F34F35"/>
<path d="M33.4641 29.2621C33.4734 29.3095 33.58 29.3062 33.6173 29.3112C33.7696 29.3324 33.9228 29.3459 34.0768 29.3527C34.2994 29.3629 34.5262 29.3595 34.7412 29.3011C34.9562 29.2427 35.1619 29.125 35.2896 28.9422C35.4174 28.7594 35.4555 28.5072 35.354 28.3083C35.3464 28.2931 35.3362 28.2762 35.3201 28.2694C35.3023 28.2618 35.282 28.2677 35.2634 28.2728C34.7878 28.4209 34.3392 28.6553 33.9457 28.9608C33.8323 29.0489 33.7188 29.1453 33.58 29.1843C33.5513 29.1927 33.4624 29.2131 33.4624 29.2545C33.4624 29.2571 33.4624 29.2596 33.4624 29.2613L33.4641 29.2621Z" fill="#FA8253"/>
<path d="M38.4592 7.35298C38.4271 7.27004 38.3932 7.18795 38.3585 7.10585C37.662 5.46903 36.494 4.0311 35.0155 3.04258C32.4189 1.30505 29.1377 1.05115 26.0189 0.872569C24.5327 0.787935 23.0313 0.708379 21.5646 0.961435C20.0979 1.21449 18.6481 1.83062 17.6545 2.93848C20.8884 2.42222 24.179 2.41629 27.4526 2.30627C29.246 2.24618 31.0927 2.16239 32.7795 2.77598C35.5047 3.76789 37.3954 6.68607 37.188 9.57885C37.0416 11.6185 35.8576 13.6083 34.0236 14.5122C33.4421 14.7991 32.8159 14.9743 32.1972 15.1571C31.6132 15.3297 29.2138 15.5455 28.7187 15.9137C29.7504 16.0889 32.6618 15.7478 33.6376 15.4245C34.688 15.0775 35.6748 14.5376 36.5287 13.8342C36.896 13.5321 37.238 13.1995 37.5494 12.8398C38.1317 12.167 38.6175 11.3883 38.8155 10.5217C39.0559 9.46968 38.8536 8.36267 38.4609 7.35298H38.4592Z" fill="url(#paint3_linear_10418_10979)"/>
<path d="M38.4592 7.35298C38.4271 7.27004 38.3932 7.18795 38.3585 7.10585C37.662 5.46903 36.494 4.0311 35.0155 3.04258C32.4189 1.30505 29.1377 1.05115 26.0189 0.872569C24.5327 0.787935 23.0313 0.708379 21.5646 0.961435C20.0979 1.21449 18.6481 1.83062 17.6545 2.93848C20.8884 2.42222 24.179 2.41629 27.4526 2.30627C29.246 2.24618 31.0927 2.16239 32.7795 2.77598C35.5047 3.76789 37.3954 6.68607 37.188 9.57885C37.0416 11.6185 35.8576 13.6083 34.0236 14.5122C33.4421 14.7991 32.8159 14.9743 32.1972 15.1571C31.6132 15.3297 29.2138 15.5455 28.7187 15.9137C29.7504 16.0889 32.6618 15.7478 33.6376 15.4245C34.688 15.0775 35.6748 14.5376 36.5287 13.8342C36.896 13.5321 37.238 13.1995 37.5494 12.8398C38.1317 12.167 38.6175 11.3883 38.8155 10.5217C39.0559 9.46968 38.8536 8.36267 38.4609 7.35298H38.4592Z" fill="url(#paint4_linear_10418_10979)"/>
<path d="M1.53252 24.87C1.53844 23.5243 1.24138 22.2057 1.35563 20.8279C1.46989 19.45 1.7805 18.024 2.23837 16.6842C3.15326 14.0064 4.66228 11.5351 6.564 9.44462C8.43018 7.39394 10.6391 5.67418 12.9809 4.1897C15.002 2.90834 17.1483 1.78779 19.4546 1.14796C21.7609 0.508125 24.5555 0.737483 26.8414 0.910983C22.2966 -0.426233 17.0027 -0.317055 12.5899 1.40609C9.3967 2.65275 6.54877 4.80076 4.53956 7.57844C2.78087 10.0091 1.71025 12.8791 1.24223 15.8311C1.00525 17.3232 0.91977 18.8381 0.967165 20.348C1.01033 21.7411 0.993402 23.5768 1.53252 24.87Z" fill="url(#paint5_linear_10418_10979)"/>
<path d="M10.4794 5.84902C10.4794 5.84902 14.1161 -1.43711 26.8408 0.911478C26.8408 0.911478 19.9127 0.24287 17.5903 3.09757C17.5903 3.09757 13.775 4.04632 10.4785 5.84902H10.4794Z" fill="url(#paint6_linear_10418_10979)"/>
<g filter="url(#filter0_d_10418_10979)">
<path d="M27.1724 2.17764C26.6359 2.24196 26.101 2.32067 25.5686 2.39938C28.1017 2.70914 30.7423 3.07814 32.8404 4.53046C33.9728 5.31417 34.9232 6.44403 35.2228 7.78802C35.6198 9.56956 34.776 11.4874 33.3676 12.6477C31.9593 13.808 30.0754 14.2777 28.2507 14.2447C25.4011 14.1923 22.7072 13.0167 20.1106 11.842C20.2655 11.9122 20.4314 12.1399 20.5608 12.2541C20.72 12.3946 20.8808 12.5317 21.045 12.6663C21.3725 12.9354 21.7102 13.1927 22.0563 13.4373C22.7283 13.9121 23.4232 14.3353 24.1663 14.6908C25.5906 15.3729 27.1361 15.8248 28.717 15.912C30.8227 16.028 32.997 15.4668 34.6583 14.1669C36.3197 12.8669 37.4089 10.7976 37.3336 8.68937C37.2752 7.05255 36.5253 5.4699 35.3642 4.31464C34.203 3.15939 32.6525 2.42646 31.0368 2.15987C29.7597 1.94997 28.4631 2.02191 27.1724 2.17595V2.17764Z" fill="url(#paint7_linear_10418_10979)"/>
</g>
<path d="M13.7479 13.2452C15.3196 10.8128 18.4045 8.53614 21.0417 8.01564C24.0403 7.42405 25.3961 7.67203 29.5922 7.76513C30.8254 7.79221 33.493 6.63273 33.1663 4.77078C33.1663 4.77078 31.5109 5.43177 28.7688 5.16433C26.0266 4.89689 22.3484 3.84066 18.407 4.86896C14.4656 5.89726 11.2715 7.94963 8.68598 10.4514C5.25746 13.7699 3.76367 16.8734 3.76367 21.8355L5.94892 19.6486C5.94892 19.6486 8.49217 14.2489 13.7479 13.2452Z" fill="#F9B990"/>
<path d="M13.7479 13.2452C15.3196 10.8128 18.4045 8.53614 21.0417 8.01564C24.0403 7.42405 25.3961 7.67203 29.5922 7.76513C30.8254 7.79221 33.493 6.63273 33.1663 4.77078C33.1663 4.77078 31.5109 5.43177 28.7688 5.16433C26.0266 4.89689 22.3484 3.84066 18.407 4.86896C14.4656 5.89726 11.2715 7.94963 8.68598 10.4514C5.25746 13.7699 3.76367 16.8734 3.76367 21.8355L5.94892 19.6486C5.94892 19.6486 8.49217 14.2489 13.7479 13.2452Z" fill="url(#paint8_linear_10418_10979)"/>
<path d="M12.4344 13.0108C14.4817 9.6364 18.2073 7.38599 22.1309 6.90865C25.055 6.55319 30.3759 7.62296 33.1663 4.76996C32.6213 4.74626 31.0488 5.59852 29.2401 5.51812C26.283 5.38609 23.3479 4.55499 20.4323 5.06956C18.1074 5.48003 15.9391 6.5862 14.0881 8.05121C12.0527 9.66095 10.3778 11.7192 9.19629 14.0289C8.76465 14.8727 8.33641 15.78 8.09351 16.6991C8.31186 16.6559 8.59454 16.386 8.7892 16.2548L9.51028 15.7707C9.991 15.4482 10.4717 15.1249 10.9524 14.8025C11.1894 14.6433 11.4281 14.4825 11.6244 14.276C11.8902 13.9976 12.0662 13.6489 12.2558 13.3146C12.3134 13.2122 12.3726 13.1115 12.4335 13.0108H12.4344Z" fill="url(#paint9_linear_10418_10979)"/>
<path d="M15.2535 6.03188C15.1274 6.08859 15.0022 6.14614 14.8769 6.20453C10.0849 8.45326 5.93787 12.3879 4.20203 17.3881C3.8728 18.3376 3.93966 22.1529 3.93966 22.1529L6.44313 20.1734C6.44313 20.1734 9.70492 12.7493 12.2981 9.91488C14.7246 7.2633 18.1912 5.86431 21.535 4.5474C19.3667 4.52624 17.2356 5.14323 15.2527 6.03103L15.2535 6.03188Z" fill="#E4493F"/>
<path d="M15.2535 6.03188C15.1274 6.08859 15.0022 6.14614 14.8769 6.20453C10.0849 8.45326 5.93787 12.3879 4.20203 17.3881C3.8728 18.3376 3.93966 22.1529 3.93966 22.1529L6.44313 20.1734C6.44313 20.1734 9.70492 12.7493 12.2981 9.91488C14.7246 7.2633 18.1912 5.86431 21.535 4.5474C19.3667 4.52624 17.2356 5.14323 15.2527 6.03103L15.2535 6.03188Z" fill="url(#paint10_linear_10418_10979)"/>
<path d="M3.93293 21.8347C4.04804 23.3192 2.62957 24.8697 1.65967 25.6822L3.93293 21.8347Z" fill="url(#paint11_linear_10418_10979)"/>
<path d="M1.65967 25.6822C-0.0964866 21.2567 2.70574 13.8512 5.41149 10.4007C8.63265 6.29254 13.4458 3.52756 18.5729 2.54242C23.7 1.55728 30.3489 2.47132 33.1663 4.76913C29.7209 6.26377 26.4938 4.89185 22.7377 4.869C18.9419 4.8453 15.13 5.88799 11.9351 7.93698C8.74014 9.98597 6.18419 13.0472 4.84359 16.5984C4.34679 17.9145 3.78821 19.9618 3.93293 21.8347C3.93293 21.8347 2.37905 24.1198 1.65967 25.6822Z" fill="url(#paint12_linear_10418_10979)"/>
<path d="M33.0495 5.76777C33.1266 6.36529 33.1545 6.97634 33.0385 7.56794C32.9226 8.16122 32.6535 8.73758 32.2066 9.14551C31.7673 9.54667 31.1851 9.7608 30.6011 9.87336C29.77 10.0333 28.8966 10.002 28.0934 9.73456C27.462 9.52382 26.889 9.17513 26.2949 8.87553C24.9221 8.18322 23.3505 7.68642 21.8076 7.6001C23.3953 7.64495 24.9839 7.49938 26.5767 7.6001C27.7667 7.67627 28.9719 7.87092 30.1432 7.64664C31.3145 7.42237 32.4723 6.80708 33.0487 5.7627C33.0487 5.76523 33.0487 5.76693 33.0487 5.76947L33.0495 5.76777Z" fill="url(#paint13_linear_10418_10979)"/>
<path d="M18.479 8.61234C18.4731 8.60811 19.2365 8.29158 19.2322 8.28565C21.2203 7.29544 23.023 7.45286 25.094 8.25603C26.2992 8.72321 27.3935 9.48238 28.6511 9.77859C29.6363 10.0105 30.7154 9.93263 31.5972 9.43583C32.4791 8.93903 33.1266 7.99367 33.1418 6.98145C33.5455 8.18917 33.1655 9.62033 32.2159 10.4684C31.5278 11.0828 30.5926 11.3841 29.6693 11.3943C28.7468 11.4036 27.8353 11.1378 27.0067 10.7307C26.212 10.3406 25.4697 9.81414 24.609 9.60763C23.7466 9.40028 22.8444 9.6161 21.96 9.67365C20.8936 9.74305 20.2131 9.71089 18.4773 8.61234H18.479Z" fill="url(#paint14_linear_10418_10979)"/>
<path d="M31.2999 11.0515C31.2999 11.0515 27.1072 13.1089 23.2623 11.9443C23.2623 11.9443 21.5383 11.3621 20.1105 10.0342C18.6827 8.70626 18.4788 8.61316 18.4788 8.61316C18.4788 8.61316 20.1867 9.66177 21.1887 9.68462C21.8573 9.69986 22.52 9.54921 23.181 9.47135C24.0358 9.37063 24.8864 9.57291 25.6676 9.91314C26.2092 10.1484 26.7077 10.5564 27.2697 10.7332C28.188 11.0218 30.2632 11.4755 31.2999 11.0523V11.0515Z" fill="url(#paint15_linear_10418_10979)"/>
<g filter="url(#filter1_d_10418_10979)">
<path d="M32.0152 15.9763C31.2798 16.7711 30.2405 17.2509 29.1707 17.4202C28.0933 17.5903 26.9846 17.4608 25.9326 17.1722C24.4007 16.7516 22.9755 15.9992 21.6578 15.1114C21.001 14.6688 20.3629 14.1889 19.6409 13.863C18.7523 13.461 17.7722 13.3087 16.8015 13.2164C15.4575 13.0895 14.0737 13.0743 12.7881 13.4864C11.4424 13.9181 10.288 14.7889 9.18695 15.6742C7.6026 16.9488 5.96155 18.4714 5.6958 20.4873C8.735 18.1472 12.8254 17.2289 16.5729 18.0456C20.7005 18.9445 25.1557 22.0497 29.2799 19.4472C30.5562 18.6415 31.5447 17.388 32.0296 15.9586C32.0246 15.9637 32.0195 15.9696 32.0152 15.9747V15.9763Z" fill="url(#paint16_linear_10418_10979)"/>
</g>
<path d="M31.9265 16.1101C30.8482 17.0393 29.4255 17.5598 28.002 17.5463C26.4058 17.5311 24.8858 16.8743 23.4902 16.0999C22.0945 15.3264 20.9943 14.1398 19.5107 13.5499C17.3644 12.6959 14.6739 12.8339 12.5055 13.6303C11.1378 14.1322 9.92335 14.9819 8.8138 15.9256C7.75842 16.8227 6.30695 18.2581 5.24902 20.3765C9.9132 16.6543 8.88828 17.4414 10.3558 16.4901C12.1856 15.3035 14.5004 14.9091 16.6306 15.3746C18.3884 15.7588 19.9711 16.6813 21.6028 17.4388C23.3446 18.2471 25.2252 18.8844 27.1438 18.7972C29.0625 18.71 31.0285 17.7824 31.9451 16.0948C31.9392 16.0999 31.9332 16.105 31.9273 16.1101H31.9265Z" fill="url(#paint17_linear_10418_10979)"/>
<path d="M25.1532 41.6568C23.733 41.3733 22.2858 41.2311 20.8724 40.9162C19.6266 40.6386 17.801 40.1892 16.9547 39.1542C16.1083 38.1191 15.774 36.5026 16.4215 35.3439C16.909 34.4722 17.8611 33.9627 18.8149 33.6648C21.0814 32.9581 23.5299 33.1993 25.8649 33.6309C24.3348 33.2746 22.6615 33.9839 21.8381 35.3067C21.5224 35.8137 21.3218 36.3976 21.2981 36.9951C21.2566 38.0607 21.7864 39.0881 22.5278 39.8541C23.2692 40.62 24.2087 41.1617 25.1532 41.6568Z" fill="#4292AC"/>
<path d="M25.1532 41.6568C23.733 41.3733 22.2858 41.2311 20.8724 40.9162C19.6266 40.6386 17.801 40.1892 16.9547 39.1542C16.1083 38.1191 15.774 36.5026 16.4215 35.3439C16.909 34.4722 17.8611 33.9627 18.8149 33.6648C21.0814 32.9581 23.5299 33.1993 25.8649 33.6309C24.3348 33.2746 22.6615 33.9839 21.8381 35.3067C21.5224 35.8137 21.3218 36.3976 21.2981 36.9951C21.2566 38.0607 21.7864 39.0881 22.5278 39.8541C23.2692 40.62 24.2087 41.1617 25.1532 41.6568Z" fill="url(#paint18_linear_10418_10979)"/>
<path d="M25.1532 41.6568C23.733 41.3733 22.2858 41.2311 20.8724 40.9162C19.6266 40.6386 17.801 40.1892 16.9547 39.1542C16.1083 38.1191 15.774 36.5026 16.4215 35.3439C16.909 34.4722 17.8611 33.9627 18.8149 33.6648C21.0814 32.9581 23.5299 33.1993 25.8649 33.6309C24.3348 33.2746 22.6615 33.9839 21.8381 35.3067C21.5224 35.8137 21.3218 36.3976 21.2981 36.9951C21.2566 38.0607 21.7864 39.0881 22.5278 39.8541C23.2692 40.62 24.2087 41.1617 25.1532 41.6568Z" fill="url(#paint19_linear_10418_10979)"/>
<path d="M25.8403 33.6428C24.3879 33.5895 22.8848 34.2191 22.052 35.4091C21.4621 36.2529 21.2404 37.3802 21.6018 38.3442C21.7778 38.8148 22.08 39.2286 22.4126 39.6052C23.1675 40.4634 24.0985 41.1676 25.1302 41.6602C24.1281 41.38 23.0964 41.2014 22.1189 40.8451C21.2396 40.5244 20.3805 40.0394 19.7923 39.2946C19.2041 38.5499 18.5592 37.558 18.6032 36.5364C18.6379 35.7282 19.1127 34.9809 19.75 34.4815C20.3873 33.9822 21.1735 33.7071 21.9657 33.5421C23.2437 33.2755 24.5877 33.2789 25.8411 33.6428H25.8403Z" fill="url(#paint20_linear_10418_10979)"/>
<path d="M16.9302 37.745C17.2687 37.8559 17.664 37.7129 17.9416 37.5114C18.242 37.2922 18.3266 36.9368 18.5188 36.6397C18.7972 36.2081 19.1679 35.7485 19.6004 35.4641C20.0329 35.1798 20.5161 35.0689 21.0256 35.0562C20.9571 35.0579 20.8724 36.2969 20.8724 36.4391C20.8724 37.3583 20.5703 37.5715 20.1598 37.861C19.2669 38.4907 17.8552 38.1555 16.9302 37.745Z" fill="url(#paint21_linear_10418_10979)"/>
<path d="M19.3946 15.967C16.6829 16.0559 13.9577 16.3394 11.3611 17.1274C8.76458 17.9153 6.28988 19.2305 4.39832 21.1763C2.50675 23.122 1.2347 25.7304 1.17038 28.4429C1.11368 30.844 1.9744 33.1621 2.85713 35.3964C2.45004 32.4444 3.03571 29.2579 4.93997 26.9652C6.8747 24.6352 9.85128 23.5113 12.5689 22.1758C13.9645 21.4894 15.4397 20.6422 16.2767 19.2805C16.6821 18.6212 16.9368 18.0236 17.5166 17.4778C18.1022 16.9259 18.7852 16.4901 19.3954 15.9679L19.3946 15.967Z" fill="#EEF9FA"/>
<path d="M19.3946 15.967C16.6829 16.0559 13.9577 16.3394 11.3611 17.1274C8.76458 17.9153 6.28988 19.2305 4.39832 21.1763C2.50675 23.122 1.2347 25.7304 1.17038 28.4429C1.11368 30.844 1.9744 33.1621 2.85713 35.3964C2.45004 32.4444 3.03571 29.2579 4.93997 26.9652C6.8747 24.6352 9.85128 23.5113 12.5689 22.1758C13.9645 21.4894 15.4397 20.6422 16.2767 19.2805C16.6821 18.6212 16.9368 18.0236 17.5166 17.4778C18.1022 16.9259 18.7852 16.4901 19.3954 15.9679L19.3946 15.967Z" fill="url(#paint22_linear_10418_10979)"/>
<path d="M17.0884 16.0974C16.1455 16.8219 13.9798 18.3402 10.2804 20.1717C5.07882 22.7479 3.80169 25.9462 3.80169 25.9462C1.54281 30.431 2.27828 33.7579 2.67437 34.9335C2.73446 35.0884 2.7954 35.2424 2.85633 35.3964C2.44924 32.4444 3.03491 29.2579 4.93917 26.9652C6.8739 24.6352 9.85048 23.5113 12.5681 22.1758C13.9637 21.4894 15.4389 20.6422 16.2759 19.2805C16.6813 18.6212 16.936 18.0237 17.5158 17.4778C18.1014 16.926 18.7844 16.4901 19.3946 15.9679C18.2707 16.0043 16.7346 16.1279 17.0884 16.0982V16.0974Z" fill="url(#paint23_linear_10418_10979)"/>
<path d="M17.0884 16.0974C16.1455 16.8219 13.9798 18.3402 10.2804 20.1717C5.07882 22.7479 3.80169 25.9462 3.80169 25.9462C1.54281 30.431 2.27828 33.7579 2.67437 34.9335C2.73446 35.0884 2.7954 35.2424 2.85633 35.3964C2.44924 32.4444 3.03491 29.2579 4.93917 26.9652C6.8739 24.6352 9.85048 23.5113 12.5681 22.1758C13.9637 21.4894 15.4389 20.6422 16.2759 19.2805C16.6813 18.6212 16.936 18.0237 17.5158 17.4778C18.1014 16.926 18.7844 16.4901 19.3946 15.9679C18.2707 16.0043 16.7346 16.1279 17.0884 16.0982V16.0974Z" fill="url(#paint24_linear_10418_10979)"/>
<path d="M11.3612 17.1274C8.76463 17.9153 6.28993 19.2305 4.39837 21.1762C2.5068 23.122 1.23475 25.7312 1.17043 28.4437C1.11711 30.6798 1.8602 32.843 2.67522 34.9343C2.27913 33.7588 1.54282 30.4318 3.80254 25.947C3.80254 25.947 5.07967 22.7487 10.2813 20.1725C13.9806 18.3402 16.1455 16.8227 17.0892 16.0982C15.1486 16.259 13.2223 16.5637 11.3612 17.1282V17.1274Z" fill="url(#paint25_linear_10418_10979)"/>
<path d="M1.70117 32.1227C1.66562 31.9983 1.63177 31.8739 1.59961 31.7495C1.63177 31.8739 1.66647 31.9983 1.70117 32.1227Z" fill="url(#paint26_linear_10418_10979)"/>
<path d="M1.59357 31.7284C1.56056 31.5998 1.5284 31.4711 1.49878 31.3425C1.5284 31.4711 1.56056 31.6006 1.59357 31.7284Z" fill="url(#paint27_linear_10418_10979)"/>
<path d="M1.49725 31.3348C1.46763 31.2079 1.44054 31.0809 1.41431 30.954C1.44054 31.0809 1.46763 31.2087 1.49725 31.3348Z" fill="url(#paint28_linear_10418_10979)"/>
<path d="M1.94739 32.9293C1.90846 32.8108 1.87122 32.6915 1.83398 32.573C1.87038 32.6923 1.90846 32.8108 1.94739 32.9293Z" fill="url(#paint29_linear_10418_10979)"/>
<path d="M1.81964 32.5248C1.78325 32.4046 1.74686 32.2836 1.71216 32.1634C1.74686 32.2844 1.7824 32.4046 1.81964 32.5248Z" fill="url(#paint30_linear_10418_10979)"/>
<path d="M1.17051 28.4429C1.16712 28.5749 1.16712 28.7069 1.17051 28.8381C1.16797 28.7069 1.16797 28.5749 1.17051 28.4429Z" fill="url(#paint31_linear_10418_10979)"/>
<path d="M1.21712 29.6625C1.20527 29.5414 1.19512 29.4195 1.1875 29.2985C1.19512 29.4204 1.20527 29.5414 1.21712 29.6625Z" fill="url(#paint32_linear_10418_10979)"/>
<path d="M1.32869 30.4978C1.30838 30.3776 1.28976 30.2583 1.27368 30.1381C1.29061 30.2583 1.30838 30.3785 1.32869 30.4978Z" fill="url(#paint33_linear_10418_10979)"/>
<path d="M13.9569 16.5045C13.8756 16.5197 13.7944 16.5349 13.7131 16.5502C13.7944 16.5341 13.8756 16.5188 13.9569 16.5045Z" fill="url(#paint34_linear_10418_10979)"/>
<path d="M14.4674 16.4156C14.3921 16.4283 14.3168 16.4401 14.2415 16.4537C14.3168 16.441 14.3921 16.4283 14.4674 16.4156Z" fill="url(#paint35_linear_10418_10979)"/>
<path d="M14.9117 16.3453C14.8287 16.3572 14.7466 16.3707 14.6646 16.3834C14.7466 16.3707 14.8296 16.3572 14.9117 16.3453Z" fill="url(#paint36_linear_10418_10979)"/>
<path d="M13.4086 16.6111C13.3519 16.6229 13.2952 16.6348 13.2385 16.6466C13.2952 16.6348 13.3519 16.6221 13.4086 16.6111Z" fill="url(#paint37_linear_10418_10979)"/>
<path d="M15.5684 16.2556C15.3661 16.281 15.1638 16.3089 14.9624 16.3386C15.1638 16.3089 15.3661 16.2819 15.5684 16.2556Z" fill="url(#paint38_linear_10418_10979)"/>
<path d="M15.99 16.2048C15.8851 16.2167 15.7801 16.2294 15.6743 16.2421C15.7793 16.2294 15.8842 16.2167 15.99 16.2048Z" fill="url(#paint39_linear_10418_10979)"/>
<path d="M12.3751 16.8464C12.337 16.8557 12.2998 16.8658 12.2617 16.876C12.2998 16.8667 12.337 16.8565 12.3751 16.8464Z" fill="url(#paint40_linear_10418_10979)"/>
<path d="M11.9233 16.9657C11.881 16.9775 11.8387 16.9885 11.7964 17.0004C11.8387 16.9885 11.881 16.9767 11.9233 16.9657Z" fill="url(#paint41_linear_10418_10979)"/>
<g filter="url(#filter2_d_10418_10979)">
<path d="M16.6695 18.0456C15.78 18.3723 15.3035 19.3676 14.4639 19.806C13.2664 20.4306 11.7667 19.7451 10.4675 20.1149C11.0244 19.944 11.4535 19.4988 11.7954 19.0274C12.1382 18.5568 12.4243 18.0397 12.8322 17.6242C14.0662 16.3673 15.4474 17.3144 16.6695 18.0456Z" fill="url(#paint42_linear_10418_10979)"/>
</g>
<path d="M17.5428 17.5023C16.8978 18.2013 16.5077 19.1365 15.8128 19.7941C13.3229 22.1529 9.88593 23.265 6.93813 25.0956C3.93871 26.9584 2.95526 30.0162 2.73945 33.1544C2.45508 37.2863 5.00679 40.0326 8.17209 41.7499C6.41256 39.3725 5.19806 36.5059 5.20229 33.5471C5.20652 30.5883 6.55982 27.5618 9.03621 25.9445C11.0877 24.6047 13.7529 24.2721 15.5378 22.5938C17.018 21.2024 17.624 19.123 17.9397 17.1155C17.7992 17.2365 17.668 17.366 17.5428 17.5014V17.5023Z" fill="url(#paint43_linear_10418_10979)"/>
<path d="M17.5428 17.5023C16.8978 18.2013 16.5077 19.1365 15.8128 19.7941C13.3229 22.1529 9.88593 23.265 6.93813 25.0956C3.93871 26.9584 2.95526 30.0162 2.73945 33.1544C2.45508 37.2863 5.00679 40.0326 8.17209 41.7499C6.41256 39.3725 5.19806 36.5059 5.20229 33.5471C5.20652 30.5883 6.55982 27.5618 9.03621 25.9445C11.0877 24.6047 13.7529 24.2721 15.5378 22.5938C17.018 21.2024 17.624 19.123 17.9397 17.1155C17.7992 17.2365 17.668 17.366 17.5428 17.5014V17.5023Z" fill="url(#paint44_linear_10418_10979)"/>
<path d="M17.5428 17.5023C16.8978 18.2013 16.5077 19.1365 15.8128 19.7941C13.3229 22.1529 9.88593 23.265 6.93813 25.0956C3.93871 26.9584 2.95526 30.0162 2.73945 33.1544C2.45508 37.2863 5.00679 40.0326 8.17209 41.7499C6.41256 39.3725 5.19806 36.5059 5.20229 33.5471C5.20652 30.5883 6.55982 27.5618 9.03621 25.9445C11.0877 24.6047 13.7529 24.2721 15.5378 22.5938C17.018 21.2024 17.624 19.123 17.9397 17.1155C17.7992 17.2365 17.668 17.366 17.5428 17.5014V17.5023Z" fill="url(#paint45_linear_10418_10979)"/>
<path d="M7.06689 33.741C7.1473 31.56 8.32879 28.7586 9.83019 27.236C10.8314 26.2196 11.2512 25.9242 12.9506 25.0609C14.21 24.4211 15.5921 23.8828 17.2636 22.968C17.8442 22.6497 18.7658 22.1817 19.3947 19.8365C19.7975 18.3343 21.7559 17.57 21.7559 17.57C21.7559 17.57 21.6155 17.036 21.3108 18.9089C21.0882 20.2783 20.6709 21.6697 20.1107 22.428C19.178 23.6899 18.4349 24.4093 14.9497 25.4291C11.8876 26.3254 9.8742 27.5365 8.04695 31.7326L7.06689 33.7402V33.741Z" fill="url(#paint46_linear_10418_10979)"/>
<path d="M7.06689 33.741C7.1473 31.56 8.32879 28.7586 9.83019 27.236C10.8314 26.2196 11.2512 25.9242 12.9506 25.0609C14.21 24.4211 15.5921 23.8828 17.2636 22.968C17.8442 22.6497 18.7658 22.1817 19.3947 19.8365C19.7975 18.3343 21.7559 17.57 21.7559 17.57C21.7559 17.57 21.6155 17.036 21.3108 18.9089C21.0882 20.2783 20.6709 21.6697 20.1107 22.428C19.178 23.6899 18.4349 24.4093 14.9497 25.4291C11.8876 26.3254 9.8742 27.5365 8.04695 31.7326L7.06689 33.7402V33.741Z" fill="url(#paint47_linear_10418_10979)"/>
<path d="M29.2282 25.92C23.4917 26.184 17.4742 25.9064 12.3327 28.4641C9.89781 29.6752 7.70325 31.5896 6.71304 34.1227C5.2311 37.9143 7.07019 43.0592 11.5075 43.1184C10.1255 42.2679 8.75948 40.9374 8.31939 39.3759C7.88098 37.817 8.31939 36.1226 9.10225 34.7041C10.9329 31.3839 14.4706 29.3256 18.0921 28.2043C21.7135 27.0829 25.5263 26.7418 29.2273 25.92H29.2282Z" fill="url(#paint48_linear_10418_10979)"/>
<path d="M14.7406 27.4933C15.3068 27.2919 15.8831 27.1175 16.4663 26.9711C18.6633 26.421 20.94 26.278 23.2006 26.1375C20.8841 26.0376 18.5415 25.8015 16.264 26.2323C13.5185 26.7511 10.4742 28.6333 8.83228 30.9421C9.51442 30.2761 10.1483 29.8309 10.6917 29.4839C11.2782 29.109 11.8833 28.7637 12.5045 28.4505C13.229 28.0857 13.9763 27.765 14.7406 27.4933Z" fill="#2495A0"/>
<path d="M13.219 42.1925C12.6781 41.7702 12.1991 41.281 11.814 40.703C10.4734 38.6862 10.6198 35.9347 11.7049 33.7689C12.7899 31.6032 14.6806 29.946 16.6949 28.6012C14.9049 29.4695 13.1098 30.376 11.5796 31.6472C10.0494 32.9192 8.78668 34.6026 8.37112 36.5483C7.27342 41.6898 12.6561 44.597 17.1096 44.1975C15.752 43.6719 14.3514 43.077 13.2181 42.1909L13.219 42.1925Z" fill="#0F6291"/>
<path d="M13.219 42.1925C12.6781 41.7702 12.1991 41.281 11.814 40.703C10.4734 38.6862 10.6198 35.9347 11.7049 33.7689C12.7899 31.6032 14.6806 29.946 16.6949 28.6012C14.9049 29.4695 13.1098 30.376 11.5796 31.6472C10.0494 32.9192 8.78668 34.6026 8.37112 36.5483C7.27342 41.6898 12.6561 44.597 17.1096 44.1975C15.752 43.6719 14.3514 43.077 13.2181 42.1909L13.219 42.1925Z" fill="url(#paint49_linear_10418_10979)"/>
<path d="M13.219 42.1925C12.6781 41.7702 12.1991 41.281 11.814 40.703C10.4734 38.6862 10.6198 35.9347 11.7049 33.7689C12.7899 31.6032 14.6806 29.946 16.6949 28.6012C14.9049 29.4695 13.1098 30.376 11.5796 31.6472C10.0494 32.9192 8.78668 34.6026 8.37112 36.5483C7.27342 41.6898 12.6561 44.597 17.1096 44.1975C15.752 43.6719 14.3514 43.077 13.2181 42.1909L13.219 42.1925Z" fill="url(#paint50_linear_10418_10979)"/>
<path d="M25.754 41.7177C23.4392 41.2793 21.0551 41.1075 18.8656 40.2485C18.0946 39.9463 17.3278 39.5367 16.8454 38.863C16.4663 38.3341 16.2936 37.6773 16.2691 37.0265C16.2377 36.2021 16.4595 35.333 17.0401 34.7473C17.4937 34.2903 18.1175 34.0474 18.7344 33.862C20.0674 33.4625 21.4622 33.2738 22.8536 33.2899C24.619 33.3111 27.8851 33.8045 29.3179 32.7736C30.5273 31.9036 31.5158 29.7293 29.9891 28.6943C29.2324 30.3074 27.4661 31.2511 25.7049 31.5219C24.2213 31.7496 22.7088 31.5786 21.2074 31.5667C19.706 31.5549 18.1361 31.7267 16.8793 32.5468C15.5327 33.4253 14.705 34.9961 14.5908 36.5999C14.4029 39.2388 15.9889 41.8946 18.3282 43.0795C19.106 43.4739 19.9455 43.7413 20.797 43.9233C22.6547 44.3219 24.5784 44.371 26.4226 44.8314C27.3459 45.0625 28.3015 45.4374 28.8499 46.216C29.4355 47.048 29.4093 48.3031 29.3797 49.3204C30.2802 48.8591 31.1037 47.5879 31.1909 46.7111C31.2416 46.1974 31.3305 45.2867 31.0588 44.718C30.4833 43.5145 29.3424 42.7054 28.0746 42.2924C27.3163 42.0453 26.5402 41.8658 25.7557 41.7177H25.754Z" fill="url(#paint51_linear_10418_10979)"/>
<path d="M25.754 41.7177C23.4392 41.2793 21.0551 41.1075 18.8656 40.2485C18.0946 39.9463 17.3278 39.5367 16.8454 38.863C16.4663 38.3341 16.2936 37.6773 16.2691 37.0265C16.2377 36.2021 16.4595 35.333 17.0401 34.7473C17.4937 34.2903 18.1175 34.0474 18.7344 33.862C20.0674 33.4625 21.4622 33.2738 22.8536 33.2899C24.619 33.3111 27.8851 33.8045 29.3179 32.7736C30.5273 31.9036 31.5158 29.7293 29.9891 28.6943C29.2324 30.3074 27.4661 31.2511 25.7049 31.5219C24.2213 31.7496 22.7088 31.5786 21.2074 31.5667C19.706 31.5549 18.1361 31.7267 16.8793 32.5468C15.5327 33.4253 14.705 34.9961 14.5908 36.5999C14.4029 39.2388 15.9889 41.8946 18.3282 43.0795C19.106 43.4739 19.9455 43.7413 20.797 43.9233C22.6547 44.3219 24.5784 44.371 26.4226 44.8314C27.3459 45.0625 28.3015 45.4374 28.8499 46.216C29.4355 47.048 29.4093 48.3031 29.3797 49.3204C30.2802 48.8591 31.1037 47.5879 31.1909 46.7111C31.2416 46.1974 31.3305 45.2867 31.0588 44.718C30.4833 43.5145 29.3424 42.7054 28.0746 42.2924C27.3163 42.0453 26.5402 41.8658 25.7557 41.7177H25.754Z" fill="url(#paint52_radial_10418_10979)"/>
<g filter="url(#filter3_d_10418_10979)">
<path d="M27.8267 42.2153C27.8622 42.2263 27.8978 42.2382 27.9341 42.2492C27.8986 42.2373 27.8622 42.2263 27.8267 42.2153Z" fill="url(#paint53_linear_10418_10979)"/>
<path d="M26.4218 44.8314C24.5785 44.371 22.6548 44.3219 20.7962 43.9233C19.9448 43.7405 19.1061 43.473 18.3274 43.0795C15.9882 41.8946 14.4021 39.2388 14.59 36.5999C14.7043 34.9961 15.532 33.4261 16.8785 32.5468C18.1362 31.7267 19.7053 31.5549 21.2067 31.5667C22.7081 31.5786 24.2332 31.8249 25.7041 31.5219C29.505 30.739 30.0585 28.2668 30.0585 28.2668C30.0585 28.2668 29.6066 29.4746 26.8416 29.0903C24.0766 28.7061 20.1242 28.7628 18.203 29.3925C16.639 29.9054 15.1114 30.8313 14.0221 32.072C11.39 35.0706 12.6197 39.9886 15.6716 42.1908C18.539 44.2601 21.629 44.1916 21.9481 44.2745C22.1698 44.332 24.9712 44.3871 26.9635 44.9863C26.7832 44.9279 26.6013 44.8771 26.4201 44.8314H26.4218Z" fill="url(#paint54_linear_10418_10979)"/>
<path d="M29.384 49.1266C29.3773 49.1587 29.373 49.1757 29.373 49.1757C29.373 49.1757 29.3773 49.174 29.3832 49.1723C29.3832 49.1571 29.3841 49.1418 29.3849 49.1266H29.384Z" fill="url(#paint55_linear_10418_10979)"/>
</g>
<path d="M23.2894 43.2665C22.0926 43.0964 20.8993 42.8984 19.7263 42.603C19.0949 42.4447 18.4703 42.2577 17.8601 42.0317C17.5512 41.9175 17.2456 41.7939 16.9452 41.6593C16.7945 41.5916 16.6447 41.5214 16.4975 41.4486C16.4035 41.402 16.1615 41.2776 16.0464 41.1752C16.1319 41.3013 16.2529 41.4427 16.3104 41.5062C16.4188 41.6246 16.4806 41.7017 16.6295 41.8667C16.8445 42.1045 17.0942 42.3093 17.3506 42.5014C17.8592 42.884 18.4221 43.1912 19.0103 43.4333C20.097 43.8801 21.2624 44.1086 22.4269 44.2627C23.8166 44.4472 25.2241 44.5318 26.5875 44.856C27.2663 45.0176 27.9569 45.2529 28.4571 45.7387C28.9107 46.1796 29.168 46.7915 29.2857 47.4136C29.4033 48.0356 29.3923 48.6729 29.3805 49.306C29.6606 48.772 29.8205 48.1753 29.8459 47.5735C29.8815 46.7001 29.6208 45.8039 29.058 45.1361C28.5654 44.5513 27.8706 44.1653 27.1453 43.9258C26.42 43.6863 25.6566 43.5839 24.8991 43.4832C24.3634 43.4121 23.8268 43.3419 23.291 43.2657L23.2894 43.2665Z" fill="url(#paint56_linear_10418_10979)"/>
<path d="M11.4296 34.3799C10.6612 35.8754 11.7047 38.1605 12.54 39.3505C12.9717 39.9641 13.4651 40.5345 14.0101 41.0508C15.0994 42.0825 16.3943 42.9 17.8043 43.4163C19.8169 44.1535 21.9903 44.2906 24.1273 44.4497C25.0625 44.5191 26.007 44.5961 26.9007 44.8805C27.7944 45.1648 28.645 45.6794 29.163 46.4614C29.6809 47.2434 29.8578 48.513 29.3779 49.3187C29.2281 48.1245 28.2938 47.4305 27.4381 46.9379C26.5825 46.4445 25.908 46.0941 24.9355 45.9198C23.0753 45.5863 21.215 45.2529 19.3548 44.9186C17.0527 44.5055 14.6246 44.0341 12.8743 42.4828C11.819 41.5476 11.0869 40.2561 10.8262 38.8706C10.5664 37.4852 10.7847 35.6334 11.4288 34.3799H11.4296Z" fill="url(#paint57_linear_10418_10979)"/>
<path d="M23.0635 25.413C23.6762 25.4435 24.2526 25.0846 24.669 24.6648C25.1167 24.2129 25.4451 23.6594 25.8412 23.1609C26.2372 22.6624 26.7315 22.202 27.3493 22.0505C27.9934 21.8922 28.7035 22.0869 29.3179 21.8364C28.8076 22.7157 28.5799 23.7719 27.8834 24.5116C27.2909 25.1413 26.4251 25.4562 25.5653 25.5442C24.7215 25.6305 23.8997 25.4951 23.0635 25.4138V25.413Z" fill="url(#paint58_linear_10418_10979)"/>
<path d="M8.72817 35.4616C8.18313 36.517 7.99863 37.7535 8.21022 38.9223C8.67739 41.4943 11.0201 43.3681 13.5159 43.8141C11.7733 43.2395 10.2905 41.9183 9.5195 40.2536C8.83312 38.7716 8.70786 37.0942 8.72817 35.4616Z" fill="#0D507A"/>
</g>
</g>
<defs>
<filter id="filter0_d_10418_10979" x="18.1106" y="1.02948" width="25.2266" height="21.8974" filterUnits="userSpaceOnUse" color-interpolation-filters="sRGB">
<feFlood flood-opacity="0" result="BackgroundImageFix"/>
<feColorMatrix in="SourceAlpha" type="matrix" values="0 0 0 0 0 0 0 0 0 0 0 0 0 0 0 0 0 0 127 0" result="hardAlpha"/>
<feOffset dx="2" dy="3"/>
<feGaussianBlur stdDeviation="2"/>
<feColorMatrix type="matrix" values="0 0 0 0 0.207843 0 0 0 0 0.0823529 0 0 0 0 0.0588235 0 0 0 0.2 0"/>
<feBlend mode="normal" in2="BackgroundImageFix" result="effect1_dropShadow_10418_10979"/>
<feBlend mode="normal" in="SourceGraphic" in2="effect1_dropShadow_10418_10979" result="shape"/>
</filter>
<filter id="filter1_d_10418_10979" x="1.6958" y="12.1374" width="34.3337" height="15.3499" filterUnits="userSpaceOnUse" color-interpolation-filters="sRGB">
<feFlood flood-opacity="0" result="BackgroundImageFix"/>
<feColorMatrix in="SourceAlpha" type="matrix" values="0 0 0 0 0 0 0 0 0 0 0 0 0 0 0 0 0 0 127 0" result="hardAlpha"/>
<feOffset dy="3"/>
<feGaussianBlur stdDeviation="2"/>
<feColorMatrix type="matrix" values="0 0 0 0 0.207843 0 0 0 0 0.0823529 0 0 0 0 0.0588235 0 0 0 0.24 0"/>
<feBlend mode="normal" in2="BackgroundImageFix" result="effect1_dropShadow_10418_10979"/>
<feBlend mode="normal" in="SourceGraphic" in2="effect1_dropShadow_10418_10979" result="shape"/>
</filter>
<filter id="filter2_d_10418_10979" x="6.46753" y="16.0106" width="14.2019" height="11.1043" filterUnits="userSpaceOnUse" color-interpolation-filters="sRGB">
<feFlood flood-opacity="0" result="BackgroundImageFix"/>
<feColorMatrix in="SourceAlpha" type="matrix" values="0 0 0 0 0 0 0 0 0 0 0 0 0 0 0 0 0 0 127 0" result="hardAlpha"/>
<feOffset dy="3"/>
<feGaussianBlur stdDeviation="2"/>
<feColorMatrix type="matrix" values="0 0 0 0 0.207843 0 0 0 0 0.0823529 0 0 0 0 0.0588235 0 0 0 0.24 0"/>
<feBlend mode="normal" in2="BackgroundImageFix" result="effect1_dropShadow_10418_10979"/>
<feBlend mode="normal" in="SourceGraphic" in2="effect1_dropShadow_10418_10979" result="shape"/>
</filter>
<filter id="filter3_d_10418_10979" x="8.58252" y="27.2668" width="25.4761" height="28.9088" filterUnits="userSpaceOnUse" color-interpolation-filters="sRGB">
<feFlood flood-opacity="0" result="BackgroundImageFix"/>
<feColorMatrix in="SourceAlpha" type="matrix" values="0 0 0 0 0 0 0 0 0 0 0 0 0 0 0 0 0 0 127 0" result="hardAlpha"/>
<feOffset dy="3"/>
<feGaussianBlur stdDeviation="2"/>
<feColorMatrix type="matrix" values="0 0 0 0 0.207843 0 0 0 0 0.0823529 0 0 0 0 0.0588235 0 0 0 0.24 0"/>
<feBlend mode="normal" in2="BackgroundImageFix" result="effect1_dropShadow_10418_10979"/>
<feBlend mode="normal" in="SourceGraphic" in2="effect1_dropShadow_10418_10979" result="shape"/>
</filter>
<linearGradient id="paint0_linear_10418_10979" x1="38.07" y1="24.8189" x2="18.7074" y2="24.8976" gradientUnits="userSpaceOnUse">
<stop offset="0.06" stop-color="#F96C3D"/>
<stop offset="0.1" stop-color="#F87B4C"/>
<stop offset="0.18" stop-color="#F59F6D"/>
<stop offset="0.26" stop-color="#F4BA87"/>
<stop offset="0.35" stop-color="#F2CE9A"/>
<stop offset="0.43" stop-color="#F2DAA5"/>
<stop offset="0.52" stop-color="#F2DEA9"/>
</linearGradient>
<linearGradient id="paint1_linear_10418_10979" x1="3.43525" y1="35.3939" x2="29.3645" y2="20.9198" gradientUnits="userSpaceOnUse">
<stop offset="0.13" stop-color="#52B4C9"/>
<stop offset="0.19" stop-color="#5DB6C6" stop-opacity="0.93"/>
<stop offset="0.59" stop-color="#ACCBB6" stop-opacity="0.43"/>
<stop offset="0.87" stop-color="#DED8AC" stop-opacity="0.12"/>
<stop offset="1" stop-color="#F2DEA9" stop-opacity="0"/>
</linearGradient>
<linearGradient id="paint2_linear_10418_10979" x1="34.4941" y1="19.3397" x2="34.9926" y2="24.0471" gradientUnits="userSpaceOnUse">
<stop offset="0.06" stop-color="#F96C3D"/>
<stop offset="0.17" stop-color="#F78555" stop-opacity="0.78"/>
<stop offset="0.29" stop-color="#F69C6B" stop-opacity="0.57"/>
<stop offset="0.41" stop-color="#F4B07E" stop-opacity="0.4"/>
<stop offset="0.52" stop-color="#F3C18D" stop-opacity="0.25"/>
<stop offset="0.64" stop-color="#F2CD99" stop-opacity="0.14"/>
<stop offset="0.76" stop-color="#F2D6A2" stop-opacity="0.06"/>
<stop offset="0.88" stop-color="#F2DCA7" stop-opacity="0.02"/>
<stop offset="1" stop-color="#F2DEA9" stop-opacity="0"/>
</linearGradient>
<linearGradient id="paint3_linear_10418_10979" x1="27.1344" y1="0.812479" x2="30.8346" y2="17.3939" gradientUnits="userSpaceOnUse">
<stop offset="0.02" stop-color="#FDB4BC"/>
<stop offset="0.26" stop-color="#EF885C"/>
<stop offset="0.45" stop-color="#F79859"/>
<stop offset="0.55" stop-color="#F6AB74"/>
<stop offset="0.69" stop-color="#F5C698"/>
<stop offset="0.83" stop-color="#F1B38C"/>
<stop offset="1" stop-color="#EEA080"/>
</linearGradient>
<linearGradient id="paint4_linear_10418_10979" x1="24.5861" y1="11.6515" x2="33.2365" y2="0.869182" gradientUnits="userSpaceOnUse">
<stop offset="0.2" stop-color="#D15B46"/>
<stop offset="0.23" stop-color="#D3644D" stop-opacity="0.92"/>
<stop offset="0.34" stop-color="#DB8465" stop-opacity="0.68"/>
<stop offset="0.45" stop-color="#E2A07A" stop-opacity="0.47"/>
<stop offset="0.56" stop-color="#E8B68B" stop-opacity="0.3"/>
<stop offset="0.67" stop-color="#ECC798" stop-opacity="0.17"/>
<stop offset="0.78" stop-color="#EFD4A1" stop-opacity="0.08"/>
<stop offset="0.89" stop-color="#F1DBA7" stop-opacity="0.02"/>
<stop offset="1" stop-color="#F2DEA9" stop-opacity="0"/>
</linearGradient>
<linearGradient id="paint5_linear_10418_10979" x1="-7.55631" y1="19.698" x2="12.65" y2="10.6126" gradientUnits="userSpaceOnUse">
<stop offset="0.21" stop-color="#AF3153"/>
<stop offset="0.76" stop-color="#CA3550"/>
<stop offset="0.84" stop-color="#C23350"/>
<stop offset="0.96" stop-color="#BF3250"/>
</linearGradient>
<linearGradient id="paint6_linear_10418_10979" x1="10.8543" y1="4.3053" x2="23.4207" y2="0.752367" gradientUnits="userSpaceOnUse">
<stop offset="0.02" stop-color="#3B2538"/>
<stop offset="0.65" stop-color="#503249"/>
</linearGradient>
<linearGradient id="paint7_linear_10418_10979" x1="37.8592" y1="5.60362" x2="21.7102" y2="11.5999" gradientUnits="userSpaceOnUse">
<stop stop-color="#F55F35"/>
<stop offset="0.41" stop-color="#F8713E"/>
<stop offset="0.7" stop-color="#FB7E45"/>
<stop offset="0.77" stop-color="#F0643E"/>
<stop offset="0.85" stop-color="#E85039"/>
<stop offset="0.92" stop-color="#E34436"/>
<stop offset="1" stop-color="#E24135"/>
</linearGradient>
<linearGradient id="paint8_linear_10418_10979" x1="18.2894" y1="2.35872" x2="18.3918" y2="8.36095" gradientUnits="userSpaceOnUse">
<stop offset="0.39" stop-color="#D15B46"/>
<stop offset="0.44" stop-color="#D86C52" stop-opacity="0.87"/>
<stop offset="0.56" stop-color="#EA9772" stop-opacity="0.54"/>
<stop offset="0.67" stop-color="#FEC493" stop-opacity="0.2"/>
</linearGradient>
<linearGradient id="paint9_linear_10418_10979" x1="8.09351" y1="10.7341" x2="33.1663" y2="10.7341" gradientUnits="userSpaceOnUse">
<stop stop-color="#F8854E"/>
<stop offset="0.07" stop-color="#F88D56" stop-opacity="0.88"/>
<stop offset="0.2" stop-color="#F99B65" stop-opacity="0.68"/>
<stop offset="0.33" stop-color="#FAA671" stop-opacity="0.5"/>
<stop offset="0.46" stop-color="#FBB07B" stop-opacity="0.35"/>
<stop offset="0.59" stop-color="#FCB883" stop-opacity="0.24"/>
<stop offset="0.73" stop-color="#FCBD89" stop-opacity="0.16"/>
<stop offset="0.86" stop-color="#FCC08C" stop-opacity="0.12"/>
<stop offset="1" stop-color="#FDC28E" stop-opacity="0.1"/>
</linearGradient>
<linearGradient id="paint10_linear_10418_10979" x1="6.63271" y1="11.7286" x2="15.8586" y2="14.1796" gradientUnits="userSpaceOnUse">
<stop stop-color="#A9342B"/>
<stop offset="0.08" stop-color="#B5382E" stop-opacity="0.84"/>
<stop offset="0.23" stop-color="#C83E33" stop-opacity="0.58"/>
<stop offset="0.38" stop-color="#D84337" stop-opacity="0.37"/>
<stop offset="0.54" stop-color="#E4473A" stop-opacity="0.21"/>
<stop offset="0.69" stop-color="#ED4A3D" stop-opacity="0.09"/>
<stop offset="0.84" stop-color="#F24C3E" stop-opacity="0.02"/>
<stop offset="1" stop-color="#F44D3F" stop-opacity="0"/>
</linearGradient>
<linearGradient id="paint11_linear_10418_10979" x1="0.89881" y1="24.7377" x2="4.35103" y2="22.957" gradientUnits="userSpaceOnUse">
<stop stop-color="#FF5760"/>
<stop offset="0.17" stop-color="#FE7576"/>
<stop offset="0.39" stop-color="#FE958E"/>
<stop offset="0.51" stop-color="#FEA298"/>
<stop offset="0.53" stop-color="#FDA897"/>
<stop offset="0.61" stop-color="#FCB497"/>
<stop offset="0.69" stop-color="#FCB897"/>
<stop offset="0.88" stop-color="#F7A47A"/>
<stop offset="1" stop-color="#F08B55"/>
</linearGradient>
<linearGradient id="paint12_linear_10418_10979" x1="-3.63926" y1="20.6837" x2="30.6518" y2="2.99774" gradientUnits="userSpaceOnUse">
<stop stop-color="#FF5760"/>
<stop offset="0.17" stop-color="#FE7576"/>
<stop offset="0.39" stop-color="#FE958E"/>
<stop offset="0.51" stop-color="#FEA298"/>
<stop offset="0.53" stop-color="#FDA897"/>
<stop offset="0.61" stop-color="#FCB497"/>
<stop offset="0.69" stop-color="#FCB897"/>
<stop offset="0.88" stop-color="#F7A47A"/>
<stop offset="1" stop-color="#F08B55"/>
</linearGradient>
<linearGradient id="paint13_linear_10418_10979" x1="21.8076" y1="7.86585" x2="33.1164" y2="7.86585" gradientUnits="userSpaceOnUse">
<stop offset="0.47" stop-color="#F8543B"/>
<stop offset="1" stop-color="#FEAA70"/>
</linearGradient>
<linearGradient id="paint14_linear_10418_10979" x1="18.479" y1="9.18785" x2="33.3026" y2="9.18785" gradientUnits="userSpaceOnUse">
<stop stop-color="#D64335"/>
<stop offset="0.6" stop-color="#FA9457"/>
<stop offset="1" stop-color="#FECA8A"/>
</linearGradient>
<linearGradient id="paint15_linear_10418_10979" x1="18.4788" y1="10.4565" x2="31.2999" y2="10.4565" gradientUnits="userSpaceOnUse">
<stop offset="0.24" stop-color="#D71924"/>
<stop offset="1" stop-color="#FE1E2B"/>
</linearGradient>
<linearGradient id="paint16_linear_10418_10979" x1="5.69665" y1="16.8125" x2="32.0305" y2="16.8125" gradientUnits="userSpaceOnUse">
<stop stop-color="#408DB4"/>
<stop offset="0.14" stop-color="#57A4C6"/>
<stop offset="0.31" stop-color="#6EB9D7"/>
<stop offset="0.5" stop-color="#7DC9E3"/>
<stop offset="0.71" stop-color="#87D2EA"/>
<stop offset="1" stop-color="#8AD5ED"/>
</linearGradient>
<linearGradient id="paint17_linear_10418_10979" x1="5.24818" y1="16.672" x2="31.9442" y2="16.672" gradientUnits="userSpaceOnUse">
<stop stop-color="#0E6BA0"/>
<stop offset="0.18" stop-color="#177AAE"/>
<stop offset="0.38" stop-color="#1D84B7"/>
<stop offset="0.66" stop-color="#1F87BA"/>
<stop offset="0.77" stop-color="#1B82B5"/>
<stop offset="0.9" stop-color="#1176A7"/>
<stop offset="1" stop-color="#056998"/>
</linearGradient>
<linearGradient id="paint18_linear_10418_10979" x1="17.179" y1="40.2662" x2="25.7143" y2="35.5014" gradientUnits="userSpaceOnUse">
<stop offset="0.1" stop-color="#0E3A5E" stop-opacity="0.92"/>
<stop offset="0.2" stop-color="#114971" stop-opacity="0.69"/>
<stop offset="0.36" stop-color="#155E8A" stop-opacity="0.39"/>
<stop offset="0.52" stop-color="#186C9B" stop-opacity="0.17"/>
<stop offset="0.68" stop-color="#1A75A6" stop-opacity="0.04"/>
<stop offset="0.83" stop-color="#1B78AA" stop-opacity="0"/>
</linearGradient>
<linearGradient id="paint19_linear_10418_10979" x1="16.0897" y1="37.4369" x2="25.8641" y2="37.4369" gradientUnits="userSpaceOnUse">
<stop offset="0.01" stop-color="#0E3A5E" stop-opacity="0.92"/>
<stop offset="0.1" stop-color="#114B73" stop-opacity="0.66"/>
<stop offset="0.21" stop-color="#155F8B" stop-opacity="0.37"/>
<stop offset="0.32" stop-color="#186C9C" stop-opacity="0.16"/>
<stop offset="0.44" stop-color="#1A75A6" stop-opacity="0.04"/>
<stop offset="0.56" stop-color="#1B78AA" stop-opacity="0"/>
</linearGradient>
<linearGradient id="paint20_linear_10418_10979" x1="21.6035" y1="41.523" x2="22.6673" y2="31.5896" gradientUnits="userSpaceOnUse">
<stop stop-color="#3081AD"/>
<stop offset="0.07" stop-color="#3386B0"/>
<stop offset="0.36" stop-color="#3D99BC"/>
<stop offset="0.67" stop-color="#43A4C2"/>
<stop offset="1" stop-color="#46A8C5"/>
</linearGradient>
<linearGradient id="paint21_linear_10418_10979" x1="16.9302" y1="36.6338" x2="21.0256" y2="36.6338" gradientUnits="userSpaceOnUse">
<stop offset="0.47" stop-color="#F8543B"/>
<stop offset="1" stop-color="#FEAA70"/>
</linearGradient>
<linearGradient id="paint22_linear_10418_10979" x1="1.16784" y1="25.6822" x2="19.3946" y2="25.6822" gradientUnits="userSpaceOnUse">
<stop stop-color="#BCE1E8"/>
<stop offset="0.03" stop-color="#BEE2E9"/>
<stop offset="0.22" stop-color="#D5EDF1"/>
<stop offset="0.43" stop-color="#E4F5F7"/>
<stop offset="0.67" stop-color="#EEF9FA"/>
<stop offset="1" stop-color="#F1FBFC"/>
</linearGradient>
<linearGradient id="paint23_linear_10418_10979" x1="3.61127" y1="28.8356" x2="18.9588" y2="21.3608" gradientUnits="userSpaceOnUse">
<stop stop-color="#A6CFD4"/>
<stop offset="0.03" stop-color="#ABD2D6" stop-opacity="0.93"/>
<stop offset="0.11" stop-color="#BBDBDF" stop-opacity="0.71"/>
<stop offset="0.21" stop-color="#C9E4E7" stop-opacity="0.52"/>
<stop offset="0.31" stop-color="#D5EBED" stop-opacity="0.36"/>
<stop offset="0.41" stop-color="#DFF0F2" stop-opacity="0.23"/>
<stop offset="0.52" stop-color="#E7F5F6" stop-opacity="0.13"/>
<stop offset="0.64" stop-color="#ECF8F9" stop-opacity="0.06"/>
<stop offset="0.79" stop-color="#F0FAFB" stop-opacity="0.01"/>
<stop offset="1" stop-color="#F1FBFC" stop-opacity="0"/>
</linearGradient>
<linearGradient id="paint24_linear_10418_10979" x1="7.31061" y1="21.8804" x2="11.0963" y2="25.6525" gradientUnits="userSpaceOnUse">
<stop stop-color="#A6CFD4"/>
<stop offset="0.03" stop-color="#ABD2D6" stop-opacity="0.93"/>
<stop offset="0.11" stop-color="#BBDBDF" stop-opacity="0.71"/>
<stop offset="0.21" stop-color="#C9E4E7" stop-opacity="0.52"/>
<stop offset="0.31" stop-color="#D5EBED" stop-opacity="0.36"/>
<stop offset="0.41" stop-color="#DFF0F2" stop-opacity="0.23"/>
<stop offset="0.52" stop-color="#E7F5F6" stop-opacity="0.13"/>
<stop offset="0.64" stop-color="#ECF8F9" stop-opacity="0.06"/>
<stop offset="0.79" stop-color="#F0FAFB" stop-opacity="0.01"/>
<stop offset="1" stop-color="#F1FBFC" stop-opacity="0"/>
</linearGradient>
<linearGradient id="paint25_linear_10418_10979" x1="3.36075" y1="28.1535" x2="15.6039" y2="17.9754" gradientUnits="userSpaceOnUse">
<stop stop-color="#B9E9F9"/>
<stop offset="0.13" stop-color="#C4EDFB"/>
<stop offset="0.32" stop-color="#CEF0FD"/>
<stop offset="0.58" stop-color="#D1F2FE"/>
<stop offset="1" stop-color="#F0FBFC"/>
</linearGradient>
<linearGradient id="paint26_linear_10418_10979" x1="1.59876" y1="31.9357" x2="1.70117" y2="31.9357" gradientUnits="userSpaceOnUse">
<stop stop-color="#BCE1E8"/>
<stop offset="0.03" stop-color="#BEE2E9"/>
<stop offset="0.22" stop-color="#D5EDF1"/>
<stop offset="0.43" stop-color="#E4F5F7"/>
<stop offset="0.67" stop-color="#EEF9FA"/>
<stop offset="1" stop-color="#F1FBFC"/>
</linearGradient>
<linearGradient id="paint27_linear_10418_10979" x1="1.49878" y1="31.5346" x2="1.59357" y2="31.5346" gradientUnits="userSpaceOnUse">
<stop stop-color="#BCE1E8"/>
<stop offset="0.03" stop-color="#BEE2E9"/>
<stop offset="0.22" stop-color="#D5EDF1"/>
<stop offset="0.43" stop-color="#E4F5F7"/>
<stop offset="0.67" stop-color="#EEF9FA"/>
<stop offset="1" stop-color="#F1FBFC"/>
</linearGradient>
<linearGradient id="paint28_linear_10418_10979" x1="1.41431" y1="31.1436" x2="1.49725" y2="31.1436" gradientUnits="userSpaceOnUse">
<stop stop-color="#BCE1E8"/>
<stop offset="0.03" stop-color="#BEE2E9"/>
<stop offset="0.22" stop-color="#D5EDF1"/>
<stop offset="0.43" stop-color="#E4F5F7"/>
<stop offset="0.67" stop-color="#EEF9FA"/>
<stop offset="1" stop-color="#F1FBFC"/>
</linearGradient>
<linearGradient id="paint29_linear_10418_10979" x1="1.83398" y1="32.7507" x2="1.94739" y2="32.7507" gradientUnits="userSpaceOnUse">
<stop stop-color="#BCE1E8"/>
<stop offset="0.03" stop-color="#BEE2E9"/>
<stop offset="0.22" stop-color="#D5EDF1"/>
<stop offset="0.43" stop-color="#E4F5F7"/>
<stop offset="0.67" stop-color="#EEF9FA"/>
<stop offset="1" stop-color="#F1FBFC"/>
</linearGradient>
<linearGradient id="paint30_linear_10418_10979" x1="1.71216" y1="32.3437" x2="1.81964" y2="32.3437" gradientUnits="userSpaceOnUse">
<stop stop-color="#BCE1E8"/>
<stop offset="0.03" stop-color="#BEE2E9"/>
<stop offset="0.22" stop-color="#D5EDF1"/>
<stop offset="0.43" stop-color="#E4F5F7"/>
<stop offset="0.67" stop-color="#EEF9FA"/>
<stop offset="1" stop-color="#F1FBFC"/>
</linearGradient>
<linearGradient id="paint31_linear_10418_10979" x1="1.16797" y1="28.6409" x2="1.17051" y2="28.6409" gradientUnits="userSpaceOnUse">
<stop stop-color="#BCE1E8"/>
<stop offset="0.03" stop-color="#BEE2E9"/>
<stop offset="0.22" stop-color="#D5EDF1"/>
<stop offset="0.43" stop-color="#E4F5F7"/>
<stop offset="0.67" stop-color="#EEF9FA"/>
<stop offset="1" stop-color="#F1FBFC"/>
</linearGradient>
<linearGradient id="paint32_linear_10418_10979" x1="1.18835" y1="29.4796" x2="1.21712" y2="29.4796" gradientUnits="userSpaceOnUse">
<stop stop-color="#BCE1E8"/>
<stop offset="0.03" stop-color="#BEE2E9"/>
<stop offset="0.22" stop-color="#D5EDF1"/>
<stop offset="0.43" stop-color="#E4F5F7"/>
<stop offset="0.67" stop-color="#EEF9FA"/>
<stop offset="1" stop-color="#F1FBFC"/>
</linearGradient>
<linearGradient id="paint33_linear_10418_10979" x1="1.27368" y1="30.3175" x2="1.32869" y2="30.3175" gradientUnits="userSpaceOnUse">
<stop stop-color="#BCE1E8"/>
<stop offset="0.03" stop-color="#BEE2E9"/>
<stop offset="0.22" stop-color="#D5EDF1"/>
<stop offset="0.43" stop-color="#E4F5F7"/>
<stop offset="0.67" stop-color="#EEF9FA"/>
<stop offset="1" stop-color="#F1FBFC"/>
</linearGradient>
<linearGradient id="paint34_linear_10418_10979" x1="13.7131" y1="16.5273" x2="13.9569" y2="16.5273" gradientUnits="userSpaceOnUse">
<stop stop-color="#BCE1E8"/>
<stop offset="0.03" stop-color="#BEE2E9"/>
<stop offset="0.22" stop-color="#D5EDF1"/>
<stop offset="0.43" stop-color="#E4F5F7"/>
<stop offset="0.67" stop-color="#EEF9FA"/>
<stop offset="1" stop-color="#F1FBFC"/>
</linearGradient>
<linearGradient id="paint35_linear_10418_10979" x1="14.2415" y1="16.4342" x2="14.4674" y2="16.4342" gradientUnits="userSpaceOnUse">
<stop stop-color="#BCE1E8"/>
<stop offset="0.03" stop-color="#BEE2E9"/>
<stop offset="0.22" stop-color="#D5EDF1"/>
<stop offset="0.43" stop-color="#E4F5F7"/>
<stop offset="0.67" stop-color="#EEF9FA"/>
<stop offset="1" stop-color="#F1FBFC"/>
</linearGradient>
<linearGradient id="paint36_linear_10418_10979" x1="14.6646" y1="16.3648" x2="14.9117" y2="16.3648" gradientUnits="userSpaceOnUse">
<stop stop-color="#BCE1E8"/>
<stop offset="0.03" stop-color="#BEE2E9"/>
<stop offset="0.22" stop-color="#D5EDF1"/>
<stop offset="0.43" stop-color="#E4F5F7"/>
<stop offset="0.67" stop-color="#EEF9FA"/>
<stop offset="1" stop-color="#F1FBFC"/>
</linearGradient>
<linearGradient id="paint37_linear_10418_10979" x1="13.2385" y1="16.6289" x2="13.4086" y2="16.6289" gradientUnits="userSpaceOnUse">
<stop stop-color="#BCE1E8"/>
<stop offset="0.03" stop-color="#BEE2E9"/>
<stop offset="0.22" stop-color="#D5EDF1"/>
<stop offset="0.43" stop-color="#E4F5F7"/>
<stop offset="0.67" stop-color="#EEF9FA"/>
<stop offset="1" stop-color="#F1FBFC"/>
</linearGradient>
<linearGradient id="paint38_linear_10418_10979" x1="14.9624" y1="16.2971" x2="15.5684" y2="16.2971" gradientUnits="userSpaceOnUse">
<stop stop-color="#BCE1E8"/>
<stop offset="0.03" stop-color="#BEE2E9"/>
<stop offset="0.22" stop-color="#D5EDF1"/>
<stop offset="0.43" stop-color="#E4F5F7"/>
<stop offset="0.67" stop-color="#EEF9FA"/>
<stop offset="1" stop-color="#F1FBFC"/>
</linearGradient>
<linearGradient id="paint39_linear_10418_10979" x1="15.6743" y1="16.2235" x2="15.99" y2="16.2235" gradientUnits="userSpaceOnUse">
<stop stop-color="#BCE1E8"/>
<stop offset="0.03" stop-color="#BEE2E9"/>
<stop offset="0.22" stop-color="#D5EDF1"/>
<stop offset="0.43" stop-color="#E4F5F7"/>
<stop offset="0.67" stop-color="#EEF9FA"/>
<stop offset="1" stop-color="#F1FBFC"/>
</linearGradient>
<linearGradient id="paint40_linear_10418_10979" x1="12.2617" y1="16.8616" x2="12.3751" y2="16.8616" gradientUnits="userSpaceOnUse">
<stop stop-color="#BCE1E8"/>
<stop offset="0.03" stop-color="#BEE2E9"/>
<stop offset="0.22" stop-color="#D5EDF1"/>
<stop offset="0.43" stop-color="#E4F5F7"/>
<stop offset="0.67" stop-color="#EEF9FA"/>
<stop offset="1" stop-color="#F1FBFC"/>
</linearGradient>
<linearGradient id="paint41_linear_10418_10979" x1="11.7972" y1="16.9835" x2="11.9233" y2="16.9835" gradientUnits="userSpaceOnUse">
<stop stop-color="#BCE1E8"/>
<stop offset="0.03" stop-color="#BEE2E9"/>
<stop offset="0.22" stop-color="#D5EDF1"/>
<stop offset="0.43" stop-color="#E4F5F7"/>
<stop offset="0.67" stop-color="#EEF9FA"/>
<stop offset="1" stop-color="#F1FBFC"/>
</linearGradient>
<linearGradient id="paint42_linear_10418_10979" x1="10.4667" y1="18.5627" x2="20.8656" y2="18.5627" gradientUnits="userSpaceOnUse">
<stop offset="0.1" stop-color="#096390"/>
<stop offset="0.14" stop-color="#18709A"/>
<stop offset="0.25" stop-color="#3A8FB4"/>
<stop offset="0.37" stop-color="#57A8C8"/>
<stop offset="0.49" stop-color="#6EBCD8"/>
<stop offset="0.63" stop-color="#7DCAE4"/>
<stop offset="0.79" stop-color="#87D2EA"/>
<stop offset="1" stop-color="#8AD5ED"/>
</linearGradient>
<linearGradient id="paint43_linear_10418_10979" x1="3.26079" y1="35.0375" x2="22.5548" y2="23.9987" gradientUnits="userSpaceOnUse">
<stop stop-color="#045888"/>
<stop offset="0.27" stop-color="#1B78AA"/>
<stop offset="0.41" stop-color="#1F7CAD"/>
<stop offset="0.58" stop-color="#2D89B8"/>
<stop offset="0.76" stop-color="#439FCB"/>
<stop offset="0.94" stop-color="#63BEE4"/>
<stop offset="1" stop-color="#6FCAEE"/>
</linearGradient>
<linearGradient id="paint44_linear_10418_10979" x1="2.63112" y1="28.3684" x2="16.8615" y2="29.8216" gradientUnits="userSpaceOnUse">
<stop stop-color="#0D3659"/>
<stop offset="0.27" stop-color="#1B78AA" stop-opacity="0"/>
</linearGradient>
<linearGradient id="paint45_linear_10418_10979" x1="7.28344" y1="22.7411" x2="11.8765" y2="28.8364" gradientUnits="userSpaceOnUse">
<stop offset="0.15" stop-color="#0D3659"/>
<stop offset="0.62" stop-color="#1B78AA" stop-opacity="0"/>
</linearGradient>
<linearGradient id="paint46_linear_10418_10979" x1="9.23691" y1="30.106" x2="25.815" y2="15.1309" gradientUnits="userSpaceOnUse">
<stop stop-color="#0F6F7E"/>
<stop offset="0.13" stop-color="#288382"/>
<stop offset="0.26" stop-color="#3B9286"/>
<stop offset="0.4" stop-color="#469B88"/>
<stop offset="0.55" stop-color="#4A9E89"/>
<stop offset="0.56" stop-color="#52A28A"/>
<stop offset="0.62" stop-color="#6EAF8E"/>
<stop offset="0.68" stop-color="#85BA92"/>
<stop offset="0.75" stop-color="#94C295"/>
<stop offset="0.83" stop-color="#9EC696"/>
<stop offset="0.94" stop-color="#A1C897"/>
</linearGradient>
<linearGradient id="paint47_linear_10418_10979" x1="12.1585" y1="23.6416" x2="18.071" y2="28.8856" gradientUnits="userSpaceOnUse">
<stop offset="0.09" stop-color="#163F50"/>
<stop offset="0.17" stop-color="#23585F" stop-opacity="0.74"/>
<stop offset="0.29" stop-color="#347671" stop-opacity="0.41"/>
<stop offset="0.41" stop-color="#408C7E" stop-opacity="0.18"/>
<stop offset="0.54" stop-color="#479986" stop-opacity="0.05"/>
<stop offset="0.68" stop-color="#4A9E89" stop-opacity="0"/>
</linearGradient>
<linearGradient id="paint48_linear_10418_10979" x1="6.20862" y1="34.5188" x2="29.2282" y2="34.5188" gradientUnits="userSpaceOnUse">
<stop stop-color="#C6EEFB"/>
<stop offset="0.13" stop-color="#BAEAFA"/>
<stop offset="0.32" stop-color="#B0E7FA"/>
<stop offset="0.58" stop-color="#AEE7FA"/>
<stop offset="1" stop-color="#F0FBFC"/>
</linearGradient>
<linearGradient id="paint49_linear_10418_10979" x1="9.35457" y1="40.2087" x2="19.4768" y2="35.0918" gradientUnits="userSpaceOnUse">
<stop stop-color="#0E3A5E" stop-opacity="0.92"/>
<stop offset="0.14" stop-color="#114971" stop-opacity="0.69"/>
<stop offset="0.35" stop-color="#155E8A" stop-opacity="0.39"/>
<stop offset="0.57" stop-color="#186C9B" stop-opacity="0.17"/>
<stop offset="0.79" stop-color="#1A75A6" stop-opacity="0.04"/>
<stop offset="1" stop-color="#1B78AA" stop-opacity="0"/>
</linearGradient>
<linearGradient id="paint50_linear_10418_10979" x1="9.77605" y1="32.5324" x2="18.7735" y2="39.4386" gradientUnits="userSpaceOnUse">
<stop offset="0.05" stop-color="#0E3A5E" stop-opacity="0.92"/>
<stop offset="0.11" stop-color="#114971" stop-opacity="0.69"/>
<stop offset="0.19" stop-color="#155E8A" stop-opacity="0.39"/>
<stop offset="0.27" stop-color="#186C9B" stop-opacity="0.17"/>
<stop offset="0.35" stop-color="#1A75A6" stop-opacity="0.04"/>
<stop offset="0.43" stop-color="#1B78AA" stop-opacity="0"/>
</linearGradient>
<linearGradient id="paint51_linear_10418_10979" x1="20.8892" y1="46.4276" x2="31.1807" y2="20.6481" gradientUnits="userSpaceOnUse">
<stop offset="0.1" stop-color="#3985C9"/>
<stop offset="0.15" stop-color="#54A1D5"/>
<stop offset="0.19" stop-color="#6AB8DE"/>
<stop offset="0.24" stop-color="#7AC7E4"/>
<stop offset="0.29" stop-color="#83D1E8"/>
<stop offset="0.37" stop-color="#86D4EA"/>
<stop offset="0.6" stop-color="#D7D9BC" stop-opacity="0"/>
</linearGradient>
<radialGradient id="paint52_radial_10418_10979" cx="0" cy="0" r="1" gradientUnits="userSpaceOnUse" gradientTransform="translate(13.5405 36.1793) scale(18.8945 18.8945)">
<stop offset="0.05" stop-color="#0E3A5E" stop-opacity="0.92"/>
<stop offset="0.11" stop-color="#114971" stop-opacity="0.69"/>
<stop offset="0.19" stop-color="#155E8A" stop-opacity="0.39"/>
<stop offset="0.27" stop-color="#186C9B" stop-opacity="0.17"/>
<stop offset="0.35" stop-color="#1A75A6" stop-opacity="0.04"/>
<stop offset="0.43" stop-color="#1B78AA" stop-opacity="0"/>
</radialGradient>
<linearGradient id="paint53_linear_10418_10979" x1="27.8267" y1="42.2323" x2="27.9341" y2="42.2323" gradientUnits="userSpaceOnUse">
<stop stop-color="#3FA7E9"/>
<stop offset="0.14" stop-color="#61B7EC"/>
<stop offset="0.35" stop-color="#93CFF2"/>
<stop offset="0.55" stop-color="#BBE2F6"/>
<stop offset="0.73" stop-color="#D8EFF9"/>
<stop offset="0.88" stop-color="#E9F8FB"/>
<stop offset="1" stop-color="#F0FBFC"/>
</linearGradient>
<linearGradient id="paint54_linear_10418_10979" x1="12.5833" y1="36.6261" x2="30.0594" y2="36.6261" gradientUnits="userSpaceOnUse">
<stop stop-color="#3FA7E9"/>
<stop offset="0.14" stop-color="#61B7EC"/>
<stop offset="0.35" stop-color="#93CFF2"/>
<stop offset="0.55" stop-color="#BBE2F6"/>
<stop offset="0.73" stop-color="#D8EFF9"/>
<stop offset="0.88" stop-color="#E9F8FB"/>
<stop offset="1" stop-color="#F0FBFC"/>
</linearGradient>
<linearGradient id="paint55_linear_10418_10979" x1="29.3722" y1="49.1511" x2="29.3841" y2="49.1511" gradientUnits="userSpaceOnUse">
<stop stop-color="#3FA7E9"/>
<stop offset="0.14" stop-color="#61B7EC"/>
<stop offset="0.35" stop-color="#93CFF2"/>
<stop offset="0.55" stop-color="#BBE2F6"/>
<stop offset="0.73" stop-color="#D8EFF9"/>
<stop offset="0.88" stop-color="#E9F8FB"/>
<stop offset="1" stop-color="#F0FBFC"/>
</linearGradient>
<linearGradient id="paint56_linear_10418_10979" x1="16.0455" y1="45.241" x2="29.8485" y2="45.241" gradientUnits="userSpaceOnUse">
<stop offset="0.09" stop-color="#2E5D8E"/>
<stop offset="0.26" stop-color="#356C97"/>
<stop offset="0.46" stop-color="#3A779D"/>
<stop offset="0.68" stop-color="#3C7BA0"/>
</linearGradient>
<linearGradient id="paint57_linear_10418_10979" x1="13.4431" y1="38.3984" x2="28.3124" y2="50.1278" gradientUnits="userSpaceOnUse">
<stop offset="0.4" stop-color="#445998"/>
<stop offset="0.42" stop-color="#415695"/>
<stop offset="0.53" stop-color="#31447E"/>
<stop offset="0.66" stop-color="#25376F"/>
<stop offset="0.8" stop-color="#1E3065"/>
<stop offset="1" stop-color="#1C2E63"/>
</linearGradient>
<linearGradient id="paint58_linear_10418_10979" x1="23.0635" y1="23.7034" x2="29.3171" y2="23.7034" gradientUnits="userSpaceOnUse">
<stop offset="0.24" stop-color="#D71924"/>
<stop offset="1" stop-color="#FE1E2B"/>
</linearGradient>
<clipPath id="clip0_10418_10979">
<rect width="37.9625" height="50" fill="white" transform="translate(0.95459)"/>
</clipPath>
<clipPath id="clip1_10418_10979">
<rect width="37.9625" height="50" fill="white" transform="translate(0.95459)"/>
</clipPath>
</defs>
</svg>
