<svg width="32" height="32" viewBox="0 0 32 32" fill="none" xmlns="http://www.w3.org/2000/svg">
<g clip-path="url(#clip0_6742_267006)">
<path d="M27.1514 9.39355C27.1514 9.39355 27.153 10.9865 27.0509 11.5159C26.9685 11.9425 26.773 12.5087 26.5874 12.9474C26.4897 13.178 26.3952 13.373 26.3211 13.4943C26.1058 13.8463 26.7241 14.9067 26.7241 14.9067C26.7241 14.9067 27.6132 16.2344 27.6329 16.3635C27.6527 16.4925 27.7125 16.9999 26.7878 17.169C25.8631 17.3381 26.1701 18.1733 26.3052 18.3326C26.4403 18.4918 26.3705 18.969 25.7539 19.0585C25.7539 19.0585 26.5594 19.6554 25.4156 20.1425C25.4156 20.1425 25.1767 20.2517 25.2964 20.7986C25.4162 21.3456 25.8933 22.698 23.7551 22.6283C23.7551 22.6283 22.3065 22.3521 21.6174 22.0978C20.9277 21.8436 19.1497 21.5054 18.158 22.4367C17.1663 23.3679 16.8999 24.7589 17.7708 25.8357C18.6417 26.9125 20.7706 27.2716 20.7706 27.2716C20.7706 27.2716 22.5399 27.8246 23.3141 28.8196C24.0884 29.8145 23.2257 31.6557 22.4438 31.9989C22.4438 31.9989 22.5113 30.2451 18.4287 29.5367C14.4948 28.8541 9.35183 27.3216 8.30741 26.8675C7.263 26.4133 5.8666 24.6968 5.30925 23.1708C4.7519 21.6448 3.58888 18.5912 4.5339 16.4832C4.5339 16.4832 1.83555 8.1251 8.5935 2.99857C13.8046 -0.955048 20.6647 0.556114 20.6647 0.556114C20.6647 0.556114 24.8495 1.36221 26.6017 2.81901C28.137 4.09515 29.7201 6.44206 27.1508 9.393L27.1514 9.39355Z" fill="#F4DBA4"/>
<path d="M27.1514 9.39355C27.1514 9.39355 27.153 10.9865 27.0509 11.5159C26.9685 11.9425 26.773 12.5087 26.5874 12.9474C26.4897 13.178 26.3952 13.373 26.3211 13.4943C26.1058 13.8463 26.7241 14.9067 26.7241 14.9067C26.7241 14.9067 27.6132 16.2344 27.6329 16.3635C27.6527 16.4925 27.7125 16.9999 26.7878 17.169C25.8631 17.3381 26.1701 18.1733 26.3052 18.3326C26.4403 18.4918 26.3705 18.969 25.7539 19.0585C25.7539 19.0585 26.5594 19.6554 25.4156 20.1425C25.4156 20.1425 25.1767 20.2517 25.2964 20.7986C25.4162 21.3456 25.8933 22.698 23.7551 22.6283C23.7551 22.6283 22.3065 22.3521 21.6174 22.0978C20.9277 21.8436 19.1497 21.5054 18.158 22.4367C17.1663 23.3679 16.8999 24.7589 17.7708 25.8357C18.6417 26.9125 20.7706 27.2716 20.7706 27.2716C20.7706 27.2716 22.5399 27.8246 23.3141 28.8196C24.0884 29.8145 23.2257 31.6557 22.4438 31.9989C22.4438 31.9989 22.5113 30.2451 18.4287 29.5367C14.4948 28.8541 9.35183 27.3216 8.30741 26.8675C7.263 26.4133 5.8666 24.6968 5.30925 23.1708C4.7519 21.6448 3.58888 18.5912 4.5339 16.4832C4.5339 16.4832 1.83555 8.1251 8.5935 2.99857C13.8046 -0.955048 20.6647 0.556114 20.6647 0.556114C20.6647 0.556114 24.8495 1.36221 26.6017 2.81901C28.137 4.09515 29.7201 6.44206 27.1508 9.393L27.1514 9.39355Z" fill="url(#paint0_linear_6742_267006)"/>
<path d="M27.1514 9.39355C27.1514 9.39355 27.153 10.9865 27.0509 11.5159C26.9685 11.9425 26.773 12.5087 26.5874 12.9474C26.4897 13.178 26.3952 13.373 26.3211 13.4943C26.1058 13.8463 26.7241 14.9067 26.7241 14.9067C26.7241 14.9067 27.6132 16.2344 27.6329 16.3635C27.6527 16.4925 27.7125 16.9999 26.7878 17.169C25.8631 17.3381 26.1701 18.1733 26.3052 18.3326C26.4403 18.4918 26.3705 18.969 25.7539 19.0585C25.7539 19.0585 26.5594 19.6554 25.4156 20.1425C25.4156 20.1425 25.1767 20.2517 25.2964 20.7986C25.4162 21.3456 25.8933 22.698 23.7551 22.6283C23.7551 22.6283 22.3065 22.3521 21.6174 22.0978C20.9277 21.8436 19.1497 21.5054 18.158 22.4367C17.1663 23.3679 16.8999 24.7589 17.7708 25.8357C18.6417 26.9125 20.7706 27.2716 20.7706 27.2716C20.7706 27.2716 22.5399 27.8246 23.3141 28.8196C24.0884 29.8145 23.2257 31.6557 22.4438 31.9989C22.4438 31.9989 22.5113 30.2451 18.4287 29.5367C14.4948 28.8541 9.35183 27.3216 8.30741 26.8675C7.263 26.4133 5.8666 24.6968 5.30925 23.1708C4.7519 21.6448 3.58888 18.5912 4.5339 16.4832C4.5339 16.4832 1.83555 8.1251 8.5935 2.99857C13.8046 -0.955048 20.6647 0.556114 20.6647 0.556114C20.6647 0.556114 24.8495 1.36221 26.6017 2.81901C28.137 4.09515 29.7201 6.44206 27.1508 9.393L27.1514 9.39355Z" fill="url(#paint1_linear_6742_267006)"/>
<path d="M26.5777 12.9533C26.2784 12.5239 25.6327 12.3811 25.1807 12.6469C24.9018 12.8111 24.6882 13.1082 24.3691 13.1631C24.6151 13.1202 25.0215 13.4041 25.1934 13.554C25.5442 13.8599 25.7595 14.3848 25.9874 14.7851C26.2575 15.2596 26.5046 15.7516 26.6529 16.2793C26.7397 16.5895 26.7858 16.9547 26.5854 17.2067C26.8143 17.1743 27.0488 17.1403 27.2525 17.0305C27.4563 16.9207 27.6259 16.718 27.6298 16.4869C27.6331 16.2903 27.52 16.1129 27.4118 15.9487C27.2454 15.6972 27.079 15.4463 26.9126 15.1948C26.688 14.8554 26.4591 14.5078 26.3586 14.1136C26.2581 13.7193 26.3081 13.2619 26.5876 12.9665C26.5843 12.9621 26.5815 12.9571 26.5782 12.9528L26.5777 12.9533Z" fill="url(#paint2_linear_6742_267006)"/>
<path d="M25.3799 9.94641C25.3799 9.94641 28.3325 9.8245 28.4077 7.12451C28.4077 7.12451 27.6774 9.04312 25.3799 9.94641Z" fill="#F34F35"/>
<path d="M25.0919 18.9863C25.098 19.0171 25.1671 19.0149 25.1913 19.0182C25.2901 19.0319 25.3895 19.0407 25.4895 19.0451C25.6339 19.0517 25.7811 19.0495 25.9205 19.0116C26.06 18.9737 26.1934 18.8974 26.2764 18.7788C26.3593 18.6601 26.384 18.4965 26.3181 18.3675C26.3131 18.3576 26.3066 18.3466 26.2961 18.3422C26.2846 18.3373 26.2714 18.3411 26.2593 18.3444C25.9507 18.4405 25.6597 18.5926 25.4044 18.7908C25.3308 18.8479 25.2572 18.9105 25.1671 18.9358C25.1485 18.9413 25.0908 18.9545 25.0908 18.9814C25.0908 18.983 25.0908 18.9847 25.0908 18.9858L25.0919 18.9863Z" fill="#FA8253"/>
<path d="M28.3333 4.7711C28.3124 4.71728 28.2904 4.66402 28.2679 4.61076C27.816 3.54877 27.0582 2.61582 26.0989 1.97446C24.4143 0.847129 22.2853 0.682395 20.2619 0.566532C19.2976 0.511621 18.3235 0.460004 17.3719 0.624189C16.4203 0.788374 15.4796 1.18813 14.835 1.90692C16.9331 1.57196 19.0681 1.56812 21.1921 1.49673C22.3556 1.45774 23.5538 1.40338 24.6482 1.80149C26.4163 2.44505 27.643 4.33839 27.5085 6.21527C27.4135 7.53863 26.6453 8.8296 25.4554 9.41605C25.0781 9.6022 24.6718 9.71587 24.2704 9.83447C23.8915 9.94649 22.3348 10.0865 22.0135 10.3254C22.6829 10.439 24.5718 10.2178 25.205 10.008C25.8864 9.78286 26.5267 9.43252 27.0807 8.97621C27.3191 8.78018 27.5409 8.56437 27.743 8.331C28.1208 7.89446 28.436 7.38927 28.5645 6.82698C28.7204 6.14443 28.5892 5.42619 28.3344 4.7711H28.3333Z" fill="url(#paint3_linear_6742_267006)"/>
<path d="M28.3333 4.7711C28.3124 4.71728 28.2904 4.66402 28.2679 4.61076C27.816 3.54877 27.0582 2.61582 26.0989 1.97446C24.4143 0.847129 22.2853 0.682395 20.2619 0.566532C19.2976 0.511621 18.3235 0.460004 17.3719 0.624189C16.4203 0.788374 15.4796 1.18813 14.835 1.90692C16.9331 1.57196 19.0681 1.56812 21.1921 1.49673C22.3556 1.45774 23.5538 1.40338 24.6482 1.80149C26.4163 2.44505 27.643 4.33839 27.5085 6.21527C27.4135 7.53863 26.6453 8.8296 25.4554 9.41605C25.0781 9.6022 24.6718 9.71587 24.2704 9.83447C23.8915 9.94649 22.3348 10.0865 22.0135 10.3254C22.6829 10.439 24.5718 10.2178 25.205 10.008C25.8864 9.78286 26.5267 9.43252 27.0807 8.97621C27.3191 8.78018 27.5409 8.56437 27.743 8.331C28.1208 7.89446 28.436 7.38927 28.5645 6.82698C28.7204 6.14443 28.5892 5.42619 28.3344 4.7711H28.3333Z" fill="url(#paint4_linear_6742_267006)"/>
<path d="M4.37497 16.1361C4.37881 15.263 4.18607 14.4075 4.2602 13.5135C4.33433 12.6196 4.53586 11.6943 4.83293 10.8251C5.42652 9.08769 6.40559 7.48428 7.63945 6.12797C8.85024 4.79746 10.2834 3.68167 11.8028 2.71852C13.1141 1.88716 14.5067 1.16014 16.003 0.745005C17.4993 0.329875 19.3125 0.478685 20.7957 0.591253C17.8469 -0.276346 14.4122 -0.205511 11.5491 0.912485C9.47733 1.72133 7.62956 3.11498 6.32597 4.91717C5.18491 6.49423 4.49028 8.35627 4.18662 10.2716C4.03287 11.2397 3.97741 12.2226 4.00816 13.2022C4.03616 14.106 4.02518 15.2971 4.37497 16.1361Z" fill="url(#paint5_linear_6742_267006)"/>
<path d="M10.1793 3.79516C10.1793 3.79516 12.5388 -0.932156 20.7947 0.591635C20.7947 0.591635 16.2997 0.157835 14.7929 2.01C14.7929 2.01 12.3175 2.62555 10.1787 3.79516H10.1793Z" fill="url(#paint6_linear_6742_267006)"/>
<g filter="url(#filter0_d_6742_267006)">
<path d="M21.0105 1.41302C20.6624 1.45475 20.3153 1.50582 19.9699 1.55689C21.6134 1.75787 23.3267 1.99728 24.6879 2.93956C25.4226 3.44804 26.0393 4.1811 26.2337 5.0531C26.4912 6.20898 25.9438 7.45327 25.03 8.20611C24.1163 8.95894 22.894 9.2637 21.7101 9.24229C19.8612 9.20824 18.1134 8.44552 16.4287 7.68335C16.5292 7.72893 16.6368 7.87664 16.7208 7.95077C16.8241 8.04192 16.9284 8.13088 17.0349 8.21819C17.2474 8.39281 17.4665 8.55974 17.6911 8.71843C18.1271 9.02648 18.5779 9.30104 19.0601 9.53167C19.9842 9.97425 20.9869 10.2675 22.0126 10.324C23.3788 10.3993 24.7895 10.0352 25.8674 9.19177C26.9453 8.34833 27.652 7.00575 27.6032 5.6379C27.5653 4.57592 27.0788 3.54907 26.3254 2.79953C25.572 2.04999 24.566 1.57446 23.5178 1.40149C22.6892 1.26531 21.8479 1.31198 21.0105 1.41192V1.41302Z" fill="url(#paint7_linear_6742_267006)"/>
</g>
<path d="M12.3002 8.59427C13.3199 7.01611 15.3214 5.539 17.0324 5.20129C18.9779 4.81746 19.8576 4.97835 22.5801 5.03875C23.3802 5.05633 25.111 4.30404 24.899 3.09599C24.899 3.09599 23.825 3.52485 22.0458 3.35133C20.2667 3.17781 17.8803 2.49251 15.323 3.15969C12.7658 3.82686 10.6935 5.15846 9.01591 6.78164C6.79145 8.93472 5.82227 10.9483 5.82227 14.1678L7.24008 12.7489C7.24008 12.7489 8.89017 9.24552 12.3002 8.59427Z" fill="#F9B990"/>
<path d="M12.3002 8.59427C13.3199 7.01611 15.3214 5.539 17.0324 5.20129C18.9779 4.81746 19.8576 4.97835 22.5801 5.03875C23.3802 5.05633 25.111 4.30404 24.899 3.09599C24.899 3.09599 23.825 3.52485 22.0458 3.35133C20.2667 3.17781 17.8803 2.49251 15.323 3.15969C12.7658 3.82686 10.6935 5.15846 9.01591 6.78164C6.79145 8.93472 5.82227 10.9483 5.82227 14.1678L7.24008 12.7489C7.24008 12.7489 8.89017 9.24552 12.3002 8.59427Z" fill="url(#paint8_linear_6742_267006)"/>
<path d="M11.4482 8.44176C12.7765 6.25245 15.1937 4.79235 17.7394 4.48265C19.6366 4.25202 23.0889 4.9461 24.8993 3.09504C24.5457 3.07967 23.5254 3.63262 22.352 3.58046C20.4334 3.4948 18.5291 2.95557 16.6374 3.28943C15.129 3.55575 13.7221 4.27344 12.5212 5.22396C11.2006 6.26837 10.1139 7.60381 9.34733 9.10235C9.06728 9.64981 8.78943 10.2385 8.63184 10.8348C8.77351 10.8068 8.95691 10.6316 9.08321 10.5465L9.55105 10.2324C9.86295 10.0232 10.1748 9.81345 10.4867 9.60424C10.6405 9.501 10.7953 9.39667 10.9227 9.26269C11.0952 9.08203 11.2094 8.85579 11.3324 8.6389C11.3697 8.57245 11.4082 8.50711 11.4477 8.44176H11.4482Z" fill="url(#paint9_linear_6742_267006)"/>
<path d="M13.2778 3.91368C13.1959 3.95047 13.1147 3.98781 13.0334 4.0257C9.92433 5.4847 7.23367 8.03753 6.10744 11.2817C5.89383 11.8978 5.93721 14.3732 5.93721 14.3732L7.56149 13.0888C7.56149 13.0888 9.67778 8.272 11.3603 6.43302C12.9346 4.71264 15.1837 3.80496 17.3533 2.95054C15.9465 2.93681 14.5638 3.33711 13.2772 3.91313L13.2778 3.91368Z" fill="#E4493F"/>
<path d="M13.2778 3.91368C13.1959 3.95047 13.1147 3.98781 13.0334 4.0257C9.92433 5.4847 7.23367 8.03753 6.10744 11.2817C5.89383 11.8978 5.93721 14.3732 5.93721 14.3732L7.56149 13.0888C7.56149 13.0888 9.67778 8.272 11.3603 6.43302C12.9346 4.71264 15.1837 3.80496 17.3533 2.95054C15.9465 2.93681 14.5638 3.33711 13.2772 3.91313L13.2778 3.91368Z" fill="url(#paint10_linear_6742_267006)"/>
<path d="M5.93195 14.167C6.00663 15.1301 5.08632 16.1361 4.45703 16.6633L5.93195 14.167Z" fill="url(#paint11_linear_6742_267006)"/>
<path d="M4.45736 16.6632C3.31795 13.7919 5.13606 8.98711 6.89158 6.74837C8.98151 4.08297 12.1043 2.28901 15.4308 1.64985C18.7574 1.01068 23.0712 1.60372 24.8992 3.09456C22.6638 4.0643 20.57 3.17419 18.133 3.15936C15.6703 3.14398 13.1971 3.82049 11.1241 5.1499C9.05124 6.4793 7.39292 8.46545 6.52312 10.7695C6.20079 11.6234 5.83838 12.9517 5.93228 14.1669C5.93228 14.1669 4.9241 15.6495 4.45736 16.6632Z" fill="url(#paint12_linear_6742_267006)"/>
<path d="M24.8242 3.74255C24.8741 4.13023 24.8922 4.52669 24.817 4.91052C24.7418 5.29545 24.5672 5.66939 24.2772 5.93407C23.9922 6.19435 23.6145 6.33327 23.2356 6.4063C22.6963 6.51009 22.1297 6.48977 21.6085 6.31625C21.1989 6.17952 20.8272 5.95328 20.4417 5.7589C19.551 5.30972 18.5313 4.98739 17.5303 4.93138C18.5604 4.96049 19.5911 4.86604 20.6245 4.93138C21.3966 4.9808 22.1785 5.1071 22.9385 4.96159C23.6985 4.81607 24.4497 4.41686 24.8236 3.73926C24.8236 3.74091 24.8236 3.742 24.8236 3.74365L24.8242 3.74255Z" fill="url(#paint13_linear_6742_267006)"/>
<path d="M15.3702 5.58842C15.3664 5.58567 15.8617 5.3803 15.859 5.37646C17.1488 4.73399 18.3184 4.83613 19.6621 5.35724C20.4441 5.66035 21.1541 6.15291 21.97 6.3451C22.6092 6.49555 23.3093 6.44503 23.8815 6.1227C24.4537 5.80037 24.8738 5.18701 24.8836 4.53027C25.1456 5.31386 24.899 6.24241 24.2829 6.79262C23.8365 7.19128 23.2297 7.38676 22.6306 7.39335C22.0321 7.39939 21.4407 7.22697 20.9031 6.96285C20.3875 6.70971 19.9059 6.36816 19.3475 6.23417C18.7879 6.09964 18.2026 6.23967 17.6287 6.27701C16.9369 6.32203 16.4954 6.30117 15.3691 5.58842H15.3702Z" fill="url(#paint14_linear_6742_267006)"/>
<path d="M23.6877 7.17086C23.6877 7.17086 20.9674 8.50576 18.4727 7.75018C18.4727 7.75018 17.3542 7.37239 16.4278 6.51083C15.5015 5.64927 15.3691 5.58887 15.3691 5.58887C15.3691 5.58887 16.4773 6.26922 17.1274 6.28405C17.5612 6.29393 17.9912 6.19619 18.42 6.14567C18.9746 6.08032 19.5265 6.21156 20.0333 6.43231C20.3847 6.58496 20.7082 6.84963 21.0728 6.9644C21.6686 7.15165 23.015 7.44597 23.6877 7.17141V7.17086Z" fill="url(#paint15_linear_6742_267006)"/>
<g filter="url(#filter1_d_6742_267006)">
<path d="M24.1525 10.3659C23.6753 10.8815 23.001 11.1928 22.3069 11.3027C21.6079 11.413 20.8886 11.329 20.206 11.1418C19.2121 10.8689 18.2874 10.3807 17.4325 9.80468C17.0063 9.51749 16.5923 9.20614 16.1239 8.99474C15.5474 8.73391 14.9115 8.63507 14.2816 8.57521C13.4097 8.49285 12.5119 8.48296 11.6777 8.75038C10.8047 9.03043 10.0557 9.59547 9.34127 10.1698C8.31333 10.9968 7.24859 11.9847 7.07617 13.2926C9.04804 11.7743 11.7019 11.1786 14.1334 11.7085C16.8114 12.2916 19.7019 14.3063 22.3778 12.6178C23.2058 12.095 23.8472 11.2818 24.1619 10.3543C24.1586 10.3576 24.1553 10.3615 24.1525 10.3648V10.3659Z" fill="url(#paint16_linear_6742_267006)"/>
</g>
<path d="M24.0947 10.4528C23.3952 11.0558 22.4721 11.3935 21.5485 11.3847C20.5129 11.3748 19.5267 10.9487 18.6212 10.4462C17.7157 9.94435 17.0018 9.17449 16.0392 8.79176C14.6467 8.2377 12.9011 8.32721 11.4942 8.84392C10.6069 9.16955 9.81889 9.72086 9.099 10.3331C8.41426 10.9152 7.47253 11.8465 6.78613 13.2209C9.8123 10.8059 9.14732 11.3166 10.0995 10.6994C11.2867 9.92952 12.7885 9.67363 14.1706 9.97565C15.3111 10.2249 16.338 10.8235 17.3967 11.3149C18.5267 11.8393 19.7469 12.2528 20.9917 12.1963C22.2365 12.1397 23.5121 11.5379 24.1068 10.4429C24.103 10.4462 24.0991 10.4495 24.0953 10.4528H24.0947Z" fill="url(#paint17_linear_6742_267006)"/>
<path d="M19.7009 27.0277C18.7795 26.8438 17.8405 26.7515 16.9235 26.5472C16.1152 26.3671 14.9307 26.0756 14.3816 25.404C13.8325 24.7324 13.6156 23.6836 14.0357 22.9319C14.352 22.3663 14.9697 22.0357 15.5886 21.8424C17.0591 21.3839 18.6477 21.5404 20.1627 21.8205C19.1699 21.5893 18.0843 22.0495 17.55 22.9077C17.3452 23.2366 17.215 23.6155 17.1997 24.0032C17.1728 24.6945 17.5165 25.3612 17.9975 25.8581C18.4786 26.3551 19.0881 26.7065 19.7009 27.0277Z" fill="#4292AC"/>
<path d="M19.7009 27.0277C18.7795 26.8438 17.8405 26.7515 16.9235 26.5472C16.1152 26.3671 14.9307 26.0756 14.3816 25.404C13.8325 24.7324 13.6156 23.6836 14.0357 22.9319C14.352 22.3663 14.9697 22.0357 15.5886 21.8424C17.0591 21.3839 18.6477 21.5404 20.1627 21.8205C19.1699 21.5893 18.0843 22.0495 17.55 22.9077C17.3452 23.2366 17.215 23.6155 17.1997 24.0032C17.1728 24.6945 17.5165 25.3612 17.9975 25.8581C18.4786 26.3551 19.0881 26.7065 19.7009 27.0277Z" fill="url(#paint18_linear_6742_267006)"/>
<path d="M19.7009 27.0277C18.7795 26.8438 17.8405 26.7515 16.9235 26.5472C16.1152 26.3671 14.9307 26.0756 14.3816 25.404C13.8325 24.7324 13.6156 23.6836 14.0357 22.9319C14.352 22.3663 14.9697 22.0357 15.5886 21.8424C17.0591 21.3839 18.6477 21.5404 20.1627 21.8205C19.1699 21.5893 18.0843 22.0495 17.55 22.9077C17.3452 23.2366 17.215 23.6155 17.1997 24.0032C17.1728 24.6945 17.5165 25.3612 17.9975 25.8581C18.4786 26.3551 19.0881 26.7065 19.7009 27.0277Z" fill="url(#paint19_linear_6742_267006)"/>
<path d="M20.1461 21.8282C19.2038 21.7936 18.2286 22.2022 17.6882 22.9742C17.3055 23.5217 17.1616 24.2531 17.3961 24.8786C17.5103 25.1839 17.7064 25.4524 17.9222 25.6967C18.412 26.2536 19.016 26.7104 19.6854 27.03C19.0352 26.8482 18.3658 26.7324 17.7316 26.5012C17.1611 26.2931 16.6037 25.9784 16.2221 25.4952C15.8405 25.012 15.422 24.3684 15.4506 23.7057C15.4731 23.1813 15.7812 22.6964 16.1947 22.3724C16.6081 22.0484 17.1183 21.87 17.6322 21.7629C18.4614 21.5899 19.3334 21.5921 20.1466 21.8282H20.1461Z" fill="url(#paint20_linear_6742_267006)"/>
<path d="M14.3652 24.4901C14.5849 24.5621 14.8413 24.4693 15.0214 24.3386C15.2164 24.1964 15.2713 23.9657 15.3959 23.773C15.5766 23.493 15.8171 23.1948 16.0977 23.0103C16.3783 22.8258 16.6918 22.7538 17.0224 22.7456C16.9779 22.7467 16.923 23.5506 16.923 23.6429C16.923 24.2392 16.727 24.3776 16.4607 24.5654C15.8813 24.9739 14.9654 24.7565 14.3652 24.4901Z" fill="url(#paint21_linear_6742_267006)"/>
<path d="M15.9645 10.3599C14.2051 10.4175 12.437 10.6015 10.7523 11.1127C9.06759 11.6239 7.46198 12.4772 6.23471 13.7397C5.00745 15.0021 4.18213 16.6944 4.14039 18.4544C4.1036 20.0122 4.66205 21.5162 5.23478 22.9659C4.97066 21.0506 5.35064 18.9831 6.58615 17.4956C7.84142 15.9839 9.77266 15.2547 11.5359 14.3882C12.4413 13.9428 13.3985 13.3932 13.9415 12.5096C14.2046 12.0819 14.3698 11.6942 14.746 11.34C15.126 10.982 15.5691 10.6992 15.965 10.3604L15.9645 10.3599Z" fill="#EEF9FA"/>
<path d="M15.9645 10.3599C14.2051 10.4175 12.437 10.6015 10.7523 11.1127C9.06759 11.6239 7.46198 12.4772 6.23471 13.7397C5.00745 15.0021 4.18213 16.6944 4.14039 18.4544C4.1036 20.0122 4.66205 21.5162 5.23478 22.9659C4.97066 21.0506 5.35064 18.9831 6.58615 17.4956C7.84142 15.9839 9.77266 15.2547 11.5359 14.3882C12.4413 13.9428 13.3985 13.3932 13.9415 12.5096C14.2046 12.0819 14.3698 11.6942 14.746 11.34C15.126 10.982 15.5691 10.6992 15.965 10.3604L15.9645 10.3599Z" fill="url(#paint22_linear_6742_267006)"/>
<path d="M14.4679 10.4449C13.8562 10.9149 12.451 11.9 10.0508 13.0883C6.67595 14.7598 5.84734 16.8349 5.84734 16.8349C4.38175 19.7446 4.85893 21.9032 5.11592 22.6659C5.15491 22.7664 5.19444 22.8664 5.23398 22.9663C4.96986 21.051 5.34984 18.9836 6.58535 17.496C7.84062 15.9843 9.77186 15.2551 11.5351 14.3886C12.4405 13.9433 13.3977 13.3936 13.9407 12.5101C14.2038 12.0823 14.369 11.6946 14.7452 11.3405C15.1252 10.9824 15.5683 10.6996 15.9642 10.3608C15.235 10.3845 14.2383 10.4646 14.4679 10.4454V10.4449Z" fill="url(#paint23_linear_6742_267006)"/>
<path d="M14.4679 10.4449C13.8562 10.9149 12.451 11.9 10.0508 13.0883C6.67595 14.7598 5.84734 16.8349 5.84734 16.8349C4.38175 19.7446 4.85893 21.9032 5.11592 22.6659C5.15491 22.7664 5.19444 22.8664 5.23398 22.9663C4.96986 21.051 5.34984 18.9836 6.58535 17.496C7.84062 15.9843 9.77186 15.2551 11.5351 14.3886C12.4405 13.9433 13.3977 13.3936 13.9407 12.5101C14.2038 12.0823 14.369 11.6946 14.7452 11.3405C15.1252 10.9824 15.5683 10.6996 15.9642 10.3608C15.235 10.3845 14.2383 10.4646 14.4679 10.4454V10.4449Z" fill="url(#paint24_linear_6742_267006)"/>
<path d="M10.7523 11.1125C9.06763 11.6238 7.46202 12.4771 6.23475 13.7395C5.00748 15.0019 4.18216 16.6948 4.14043 18.4547C4.10583 19.9055 4.58795 21.309 5.11675 22.6659C4.85977 21.9032 4.38204 19.7446 5.84817 16.8349C5.84817 16.8349 6.67678 14.7598 10.0516 13.0883C12.4518 11.8994 13.8564 10.9149 14.4687 10.4448C13.2096 10.5492 11.9598 10.7468 10.7523 11.1131V11.1125Z" fill="url(#paint25_linear_6742_267006)"/>
<path d="M4.48386 20.8418C4.4608 20.761 4.43884 20.6803 4.41797 20.5996C4.43884 20.6803 4.46135 20.761 4.48386 20.8418Z" fill="url(#paint26_linear_6742_267006)"/>
<path d="M4.41404 20.5858C4.39262 20.5024 4.37176 20.4189 4.35254 20.3354C4.37176 20.4189 4.39262 20.5029 4.41404 20.5858Z" fill="url(#paint27_linear_6742_267006)"/>
<path d="M4.35166 20.3306C4.33245 20.2482 4.31487 20.1659 4.29785 20.0835C4.31487 20.1659 4.33245 20.2488 4.35166 20.3306Z" fill="url(#paint28_linear_6742_267006)"/>
<path d="M4.64389 21.365C4.61863 21.2881 4.59447 21.2107 4.57031 21.1338C4.59392 21.2112 4.61863 21.2881 4.64389 21.365Z" fill="url(#paint29_linear_6742_267006)"/>
<path d="M4.56095 21.1026C4.53734 21.0247 4.51372 20.9461 4.49121 20.8682C4.51372 20.9467 4.53679 21.0247 4.56095 21.1026Z" fill="url(#paint30_linear_6742_267006)"/>
<path d="M4.13934 18.4541C4.13715 18.5398 4.13715 18.6254 4.13934 18.7105C4.1377 18.6254 4.1377 18.5398 4.13934 18.4541Z" fill="url(#paint31_linear_6742_267006)"/>
<path d="M4.16961 19.2459C4.16192 19.1674 4.15533 19.0883 4.15039 19.0098C4.15533 19.0888 4.16192 19.1674 4.16961 19.2459Z" fill="url(#paint32_linear_6742_267006)"/>
<path d="M4.24175 19.7876C4.22857 19.7096 4.21649 19.6322 4.20605 19.5542C4.21704 19.6322 4.22857 19.7101 4.24175 19.7876Z" fill="url(#paint33_linear_6742_267006)"/>
<path d="M12.4355 10.7085C12.3828 10.7184 12.3301 10.7283 12.2773 10.7381C12.3301 10.7277 12.3828 10.7178 12.4355 10.7085Z" fill="url(#paint34_linear_6742_267006)"/>
<path d="M12.7667 10.6504C12.7179 10.6586 12.669 10.6663 12.6201 10.6751C12.669 10.6669 12.7179 10.6586 12.7667 10.6504Z" fill="url(#paint35_linear_6742_267006)"/>
<path d="M13.0549 10.605C13.0011 10.6127 12.9478 10.6215 12.8945 10.6297C12.9478 10.6215 13.0016 10.6127 13.0549 10.605Z" fill="url(#paint36_linear_6742_267006)"/>
<path d="M12.0791 10.7778C12.0423 10.7855 12.0055 10.7932 11.9688 10.8009C12.0055 10.7932 12.0423 10.785 12.0791 10.7778Z" fill="url(#paint37_linear_6742_267006)"/>
<path d="M13.4811 10.5469C13.3498 10.5633 13.2186 10.5815 13.0879 10.6007C13.2186 10.5815 13.3498 10.5639 13.4811 10.5469Z" fill="url(#paint38_linear_6742_267006)"/>
<path d="M13.7546 10.5142C13.6865 10.5218 13.6184 10.5301 13.5498 10.5383C13.6179 10.5301 13.686 10.5218 13.7546 10.5142Z" fill="url(#paint39_linear_6742_267006)"/>
<path d="M11.4085 10.9302C11.3838 10.9362 11.3597 10.9428 11.335 10.9494C11.3597 10.9434 11.3838 10.9368 11.4085 10.9302Z" fill="url(#paint40_linear_6742_267006)"/>
<path d="M11.1165 11.0078C11.0891 11.0155 11.0616 11.0226 11.0342 11.0303C11.0616 11.0226 11.0891 11.015 11.1165 11.0078Z" fill="url(#paint41_linear_6742_267006)"/>
<g filter="url(#filter2_d_6742_267006)">
<path d="M14.1958 11.7086C13.6187 11.9206 13.3095 12.5664 12.7648 12.8508C11.9878 13.256 11.0148 12.8113 10.1719 13.0512C10.5332 12.9403 10.8116 12.6515 11.0334 12.3456C11.2558 12.0403 11.4414 11.7048 11.7061 11.4352C12.5067 10.6197 13.4029 11.2342 14.1958 11.7086Z" fill="url(#paint42_linear_6742_267006)"/>
</g>
<path d="M14.7631 11.3564C14.3447 11.81 14.0916 12.4168 13.6408 12.8434C12.0253 14.3738 9.79531 15.0953 7.88275 16.2831C5.93669 17.4917 5.29862 19.4756 5.15859 21.5117C4.97409 24.1925 6.62967 25.9744 8.68335 27.0885C7.54175 25.5461 6.75377 23.6862 6.75651 21.7665C6.75926 19.8468 7.63729 17.8832 9.244 16.8338C10.5751 15.9646 12.3042 15.7488 13.4623 14.6599C14.4227 13.7571 14.8159 12.408 15.0207 11.1055C14.9295 11.184 14.8444 11.268 14.7631 11.3559V11.3564Z" fill="url(#paint43_linear_6742_267006)"/>
<path d="M14.7631 11.3564C14.3447 11.81 14.0916 12.4168 13.6408 12.8434C12.0253 14.3738 9.79531 15.0953 7.88275 16.2831C5.93669 17.4917 5.29862 19.4756 5.15859 21.5117C4.97409 24.1925 6.62967 25.9744 8.68335 27.0885C7.54175 25.5461 6.75377 23.6862 6.75651 21.7665C6.75926 19.8468 7.63729 17.8832 9.244 16.8338C10.5751 15.9646 12.3042 15.7488 13.4623 14.6599C14.4227 13.7571 14.8159 12.408 15.0207 11.1055C14.9295 11.184 14.8444 11.268 14.7631 11.3559V11.3564Z" fill="url(#paint44_linear_6742_267006)"/>
<path d="M14.7631 11.3564C14.3447 11.81 14.0916 12.4168 13.6408 12.8434C12.0253 14.3738 9.79531 15.0953 7.88275 16.2831C5.93669 17.4917 5.29862 19.4756 5.15859 21.5117C4.97409 24.1925 6.62967 25.9744 8.68335 27.0885C7.54175 25.5461 6.75377 23.6862 6.75651 21.7665C6.75926 19.8468 7.63729 17.8832 9.244 16.8338C10.5751 15.9646 12.3042 15.7488 13.4623 14.6599C14.4227 13.7571 14.8159 12.408 15.0207 11.1055C14.9295 11.184 14.8444 11.268 14.7631 11.3559V11.3564Z" fill="url(#paint45_linear_6742_267006)"/>
<path d="M7.96582 21.8921C8.01799 20.477 8.78455 18.6595 9.75868 17.6716C10.4083 17.0121 10.6806 16.8205 11.7833 16.2604C12.6003 15.8453 13.497 15.496 14.5815 14.9024C14.9582 14.696 15.5562 14.3923 15.9642 12.8707C16.2256 11.896 17.4962 11.4002 17.4962 11.4002C17.4962 11.4002 17.4051 11.0537 17.2074 12.2689C17.063 13.1574 16.7923 14.0601 16.4288 14.5521C15.8236 15.3708 15.3415 15.8376 13.0803 16.4993C11.0936 17.0808 9.78723 17.8666 8.60169 20.5891L7.96582 21.8916V21.8921Z" fill="url(#paint46_linear_6742_267006)"/>
<path d="M7.96582 21.8921C8.01799 20.477 8.78455 18.6595 9.75868 17.6716C10.4083 17.0121 10.6806 16.8205 11.7833 16.2604C12.6003 15.8453 13.497 15.496 14.5815 14.9024C14.9582 14.696 15.5562 14.3923 15.9642 12.8707C16.2256 11.896 17.4962 11.4002 17.4962 11.4002C17.4962 11.4002 17.4051 11.0537 17.2074 12.2689C17.063 13.1574 16.7923 14.0601 16.4288 14.5521C15.8236 15.3708 15.3415 15.8376 13.0803 16.4993C11.0936 17.0808 9.78723 17.8666 8.60169 20.5891L7.96582 21.8916V21.8921Z" fill="url(#paint47_linear_6742_267006)"/>
<path d="M22.3444 16.8174C18.6226 16.9887 14.7184 16.8086 11.3825 18.468C9.80269 19.2538 8.37884 20.4959 7.73637 22.1394C6.77488 24.5994 7.9681 27.9375 10.8471 27.9759C9.9504 27.4241 9.06413 26.5609 8.77859 25.5477C8.49415 24.5363 8.77859 23.4369 9.28652 22.5166C10.4743 20.3625 12.7696 19.027 15.1192 18.2994C17.4689 17.5719 19.9426 17.3506 22.3439 16.8174H22.3444Z" fill="url(#paint48_linear_6742_267006)"/>
<path d="M12.9437 17.8381C13.3111 17.7074 13.685 17.5943 14.0634 17.4993C15.4889 17.1424 16.966 17.0496 18.4327 16.9584C16.9297 16.8936 15.4098 16.7404 13.9321 17.0199C12.1508 17.3565 10.1756 18.5778 9.11035 20.0757C9.55294 19.6436 9.96422 19.3548 10.3168 19.1296C10.6973 18.8864 11.0899 18.6623 11.493 18.4592C11.963 18.2225 12.4479 18.0144 12.9437 17.8381Z" fill="#2495A0"/>
<path d="M11.9577 27.3753C11.6068 27.1013 11.296 26.784 11.0462 26.4089C10.1764 25.1004 10.2714 23.3152 10.9753 21.91C11.6793 20.5048 12.906 19.4297 14.2129 18.5571C13.0515 19.1205 11.8869 19.7086 10.8941 20.5334C9.90128 21.3587 9.082 22.4509 8.81238 23.7133C8.10018 27.0492 11.5925 28.9354 14.482 28.6762C13.6012 28.3352 12.6924 27.9492 11.9572 27.3743L11.9577 27.3753Z" fill="#0F6291"/>
<path d="M11.9577 27.3753C11.6068 27.1013 11.296 26.784 11.0462 26.4089C10.1764 25.1004 10.2714 23.3152 10.9753 21.91C11.6793 20.5048 12.906 19.4297 14.2129 18.5571C13.0515 19.1205 11.8869 19.7086 10.8941 20.5334C9.90128 21.3587 9.082 22.4509 8.81238 23.7133C8.10018 27.0492 11.5925 28.9354 14.482 28.6762C13.6012 28.3352 12.6924 27.9492 11.9572 27.3743L11.9577 27.3753Z" fill="url(#paint49_linear_6742_267006)"/>
<path d="M11.9577 27.3753C11.6068 27.1013 11.296 26.784 11.0462 26.4089C10.1764 25.1004 10.2714 23.3152 10.9753 21.91C11.6793 20.5048 12.906 19.4297 14.2129 18.5571C13.0515 19.1205 11.8869 19.7086 10.8941 20.5334C9.90128 21.3587 9.082 22.4509 8.81238 23.7133C8.10018 27.0492 11.5925 28.9354 14.482 28.6762C13.6012 28.3352 12.6924 27.9492 11.9572 27.3743L11.9577 27.3753Z" fill="url(#paint50_linear_6742_267006)"/>
<path d="M20.0905 27.067C18.5887 26.7825 17.0418 26.671 15.6212 26.1137C15.121 25.9177 14.6235 25.6519 14.3105 25.2148C14.0645 24.8716 13.9525 24.4455 13.9366 24.0232C13.9163 23.4884 14.0601 22.9244 14.4368 22.5444C14.7311 22.2479 15.1358 22.0903 15.5361 21.9701C16.401 21.7109 17.3059 21.5884 18.2087 21.5989C19.3541 21.6126 21.4732 21.9327 22.4028 21.2639C23.1875 20.6994 23.8289 19.2888 22.8383 18.6172C22.3473 19.6638 21.2013 20.2761 20.0586 20.4518C19.096 20.5995 18.1148 20.4886 17.1406 20.4809C16.1665 20.4732 15.1479 20.5847 14.3325 21.1168C13.4588 21.6867 12.9218 22.7059 12.8477 23.7465C12.7258 25.4586 13.7548 27.1817 15.2726 27.9505C15.7772 28.2064 16.3219 28.3799 16.8743 28.4979C18.0796 28.7566 19.3278 28.7884 20.5243 29.0871C21.1234 29.237 21.7433 29.4803 22.0991 29.9855C22.4791 30.5253 22.4621 31.3396 22.4429 31.9996C23.0271 31.7004 23.5614 30.8756 23.618 30.3067C23.6509 29.9734 23.7086 29.3826 23.5323 29.0136C23.1589 28.2327 22.4187 27.7078 21.5962 27.4398C21.1042 27.2795 20.6006 27.163 20.0916 27.067H20.0905Z" fill="url(#paint51_linear_6742_267006)"/>
<path d="M20.0905 27.067C18.5887 26.7825 17.0418 26.671 15.6212 26.1137C15.121 25.9177 14.6235 25.6519 14.3105 25.2148C14.0645 24.8716 13.9525 24.4455 13.9366 24.0232C13.9163 23.4884 14.0601 22.9244 14.4368 22.5444C14.7311 22.2479 15.1358 22.0903 15.5361 21.9701C16.401 21.7109 17.3059 21.5884 18.2087 21.5989C19.3541 21.6126 21.4732 21.9327 22.4028 21.2639C23.1875 20.6994 23.8289 19.2888 22.8383 18.6172C22.3473 19.6638 21.2013 20.2761 20.0586 20.4518C19.096 20.5995 18.1148 20.4886 17.1406 20.4809C16.1665 20.4732 15.1479 20.5847 14.3325 21.1168C13.4588 21.6867 12.9218 22.7059 12.8477 23.7465C12.7258 25.4586 13.7548 27.1817 15.2726 27.9505C15.7772 28.2064 16.3219 28.3799 16.8743 28.4979C18.0796 28.7566 19.3278 28.7884 20.5243 29.0871C21.1234 29.237 21.7433 29.4803 22.0991 29.9855C22.4791 30.5253 22.4621 31.3396 22.4429 31.9996C23.0271 31.7004 23.5614 30.8756 23.618 30.3067C23.6509 29.9734 23.7086 29.3826 23.5323 29.0136C23.1589 28.2327 22.4187 27.7078 21.5962 27.4398C21.1042 27.2795 20.6006 27.163 20.0916 27.067H20.0905Z" fill="url(#paint52_radial_6742_267006)"/>
<g filter="url(#filter3_d_6742_267006)">
<path d="M21.4346 27.3901C21.4576 27.3973 21.4807 27.405 21.5043 27.4121C21.4812 27.4044 21.4576 27.3973 21.4346 27.3901Z" fill="url(#paint53_linear_6742_267006)"/>
<path d="M20.523 29.0876C19.3271 28.7889 18.0789 28.757 16.8731 28.4984C16.3207 28.3798 15.7765 28.2063 15.2713 27.9509C13.7536 27.1822 12.7245 25.459 12.8464 23.7469C12.9206 22.7063 13.4576 21.6877 14.3312 21.1172C15.1472 20.5851 16.1653 20.4736 17.1394 20.4813C18.1135 20.489 19.103 20.6488 20.0574 20.4522C22.5235 19.9443 22.8826 18.3403 22.8826 18.3403C22.8826 18.3403 22.5894 19.1239 20.7954 18.8746C19.0014 18.6253 16.4371 18.6621 15.1906 19.0707C14.1758 19.4034 13.1847 20.0041 12.478 20.8091C10.7702 22.7547 11.5681 25.9456 13.5482 27.3744C15.4086 28.7169 17.4134 28.6725 17.6204 28.7263C17.7643 28.7636 19.5819 28.7993 20.8745 29.1881C20.7575 29.1502 20.6395 29.1172 20.5219 29.0876H20.523Z" fill="url(#paint54_linear_6742_267006)"/>
<path d="M22.4446 31.8745C22.4402 31.8954 22.4375 31.9064 22.4375 31.9064C22.4375 31.9064 22.4402 31.9053 22.4441 31.9042C22.4441 31.8943 22.4446 31.8844 22.4452 31.8745H22.4446Z" fill="url(#paint55_linear_6742_267006)"/>
</g>
<path d="M18.4913 28.0722C17.7149 27.9618 16.9406 27.8333 16.1795 27.6417C15.7699 27.539 15.3647 27.4176 14.9687 27.271C14.7683 27.1969 14.5701 27.1167 14.3752 27.0294C14.2774 26.9855 14.1802 26.9399 14.0847 26.8927C14.0237 26.8625 13.8667 26.7818 13.792 26.7153C13.8475 26.7971 13.926 26.8889 13.9633 26.93C14.0336 27.0069 14.0737 27.0569 14.1703 27.164C14.3098 27.3183 14.4718 27.4511 14.6382 27.5758C14.9682 27.824 15.3334 28.0233 15.715 28.1804C16.42 28.4703 17.1762 28.6186 17.9318 28.7185C18.8334 28.8382 19.7466 28.8931 20.6312 29.1034C21.0716 29.2083 21.5197 29.361 21.8442 29.6762C22.1385 29.9622 22.3055 30.3592 22.3818 30.7628C22.4581 31.1664 22.451 31.5799 22.4433 31.9907C22.625 31.6442 22.7288 31.2571 22.7453 30.8666C22.7684 30.2999 22.5992 29.7184 22.2341 29.2852C21.9145 28.9057 21.4637 28.6554 20.9931 28.5C20.5225 28.3446 20.0272 28.2781 19.5357 28.2128C19.1881 28.1666 18.84 28.1211 18.4924 28.0716L18.4913 28.0722Z" fill="url(#paint56_linear_6742_267006)"/>
<path d="M10.7959 22.3062C10.2973 23.2764 10.9743 24.759 11.5163 25.5311C11.7964 25.9292 12.1165 26.2993 12.4701 26.6343C13.1768 27.3036 14.017 27.8341 14.9318 28.169C16.2376 28.6473 17.6477 28.7363 19.0342 28.8395C19.641 28.8845 20.2538 28.9345 20.8337 29.119C21.4135 29.3035 21.9654 29.6374 22.3015 30.1448C22.6375 30.6521 22.7523 31.4758 22.4409 31.9986C22.3437 31.2238 21.7375 30.7735 21.1824 30.4539C20.6272 30.1338 20.1896 29.9064 19.5586 29.7933C18.3517 29.577 17.1447 29.3606 15.9378 29.1437C14.4442 28.8758 12.8688 28.5699 11.7332 27.5634C11.0485 26.9566 10.5735 26.1186 10.4044 25.2198C10.2358 24.3209 10.3775 23.1194 10.7953 22.3062H10.7959Z" fill="url(#paint57_linear_6742_267006)"/>
<path d="M18.3447 16.4885C18.7423 16.5083 19.1162 16.2755 19.3864 16.0031C19.6769 15.7099 19.8899 15.3508 20.1469 15.0273C20.4039 14.7039 20.7246 14.4052 21.1254 14.3069C21.5433 14.2042 22.004 14.3305 22.4027 14.168C22.0716 14.7385 21.9238 15.4238 21.4719 15.9037C21.0875 16.3123 20.5258 16.5165 19.9679 16.5736C19.4204 16.6296 18.8873 16.5418 18.3447 16.4891V16.4885Z" fill="url(#paint58_linear_6742_267006)"/>
<path d="M9.04385 23.0083C8.69022 23.693 8.57051 24.4953 8.70779 25.2536C9.0109 26.9224 10.5308 28.1381 12.1502 28.4275C11.0196 28.0547 10.0575 27.1975 9.55727 26.1174C9.11194 25.1559 9.03067 24.0675 9.04385 23.0083Z" fill="#0D507A"/>
</g>
<defs>
<filter id="filter0_d_6742_267006" x="14.4287" y="0.316895" width="19.1768" height="17.0166" filterUnits="userSpaceOnUse" color-interpolation-filters="sRGB">
<feFlood flood-opacity="0" result="BackgroundImageFix"/>
<feColorMatrix in="SourceAlpha" type="matrix" values="0 0 0 0 0 0 0 0 0 0 0 0 0 0 0 0 0 0 127 0" result="hardAlpha"/>
<feOffset dx="2" dy="3"/>
<feGaussianBlur stdDeviation="2"/>
<feColorMatrix type="matrix" values="0 0 0 0 0.207843 0 0 0 0 0.0823529 0 0 0 0 0.0588235 0 0 0 0.2 0"/>
<feBlend mode="normal" in2="BackgroundImageFix" result="effect1_dropShadow_6742_267006"/>
<feBlend mode="normal" in="SourceGraphic" in2="effect1_dropShadow_6742_267006" result="shape"/>
</filter>
<filter id="filter1_d_6742_267006" x="3.07617" y="7.52393" width="25.0859" height="12.7686" filterUnits="userSpaceOnUse" color-interpolation-filters="sRGB">
<feFlood flood-opacity="0" result="BackgroundImageFix"/>
<feColorMatrix in="SourceAlpha" type="matrix" values="0 0 0 0 0 0 0 0 0 0 0 0 0 0 0 0 0 0 127 0" result="hardAlpha"/>
<feOffset dy="3"/>
<feGaussianBlur stdDeviation="2"/>
<feColorMatrix type="matrix" values="0 0 0 0 0.207843 0 0 0 0 0.0823529 0 0 0 0 0.0588235 0 0 0 0.24 0"/>
<feBlend mode="normal" in2="BackgroundImageFix" result="effect1_dropShadow_6742_267006"/>
<feBlend mode="normal" in="SourceGraphic" in2="effect1_dropShadow_6742_267006" result="shape"/>
</filter>
<filter id="filter2_d_6742_267006" x="6.17188" y="10.0371" width="12.0234" height="10.0142" filterUnits="userSpaceOnUse" color-interpolation-filters="sRGB">
<feFlood flood-opacity="0" result="BackgroundImageFix"/>
<feColorMatrix in="SourceAlpha" type="matrix" values="0 0 0 0 0 0 0 0 0 0 0 0 0 0 0 0 0 0 127 0" result="hardAlpha"/>
<feOffset dy="3"/>
<feGaussianBlur stdDeviation="2"/>
<feColorMatrix type="matrix" values="0 0 0 0 0.207843 0 0 0 0 0.0823529 0 0 0 0 0.0588235 0 0 0 0.24 0"/>
<feBlend mode="normal" in2="BackgroundImageFix" result="effect1_dropShadow_6742_267006"/>
<feBlend mode="normal" in="SourceGraphic" in2="effect1_dropShadow_6742_267006" result="shape"/>
</filter>
<filter id="filter3_d_6742_267006" x="7.54395" y="17.3403" width="19.3389" height="21.5659" filterUnits="userSpaceOnUse" color-interpolation-filters="sRGB">
<feFlood flood-opacity="0" result="BackgroundImageFix"/>
<feColorMatrix in="SourceAlpha" type="matrix" values="0 0 0 0 0 0 0 0 0 0 0 0 0 0 0 0 0 0 127 0" result="hardAlpha"/>
<feOffset dy="3"/>
<feGaussianBlur stdDeviation="2"/>
<feColorMatrix type="matrix" values="0 0 0 0 0.207843 0 0 0 0 0.0823529 0 0 0 0 0.0588235 0 0 0 0.24 0"/>
<feBlend mode="normal" in2="BackgroundImageFix" result="effect1_dropShadow_6742_267006"/>
<feBlend mode="normal" in="SourceGraphic" in2="effect1_dropShadow_6742_267006" result="shape"/>
</filter>
<linearGradient id="paint0_linear_6742_267006" x1="28.0816" y1="16.1032" x2="15.5189" y2="16.1542" gradientUnits="userSpaceOnUse">
<stop offset="0.06" stop-color="#F96C3D"/>
<stop offset="0.1" stop-color="#F87B4C"/>
<stop offset="0.18" stop-color="#F59F6D"/>
<stop offset="0.26" stop-color="#F4BA87"/>
<stop offset="0.35" stop-color="#F2CE9A"/>
<stop offset="0.43" stop-color="#F2DAA5"/>
<stop offset="0.52" stop-color="#F2DEA9"/>
</linearGradient>
<linearGradient id="paint1_linear_6742_267006" x1="5.61016" y1="22.9643" x2="22.4334" y2="13.5734" gradientUnits="userSpaceOnUse">
<stop offset="0.13" stop-color="#52B4C9"/>
<stop offset="0.19" stop-color="#5DB6C6" stop-opacity="0.93"/>
<stop offset="0.59" stop-color="#ACCBB6" stop-opacity="0.43"/>
<stop offset="0.87" stop-color="#DED8AC" stop-opacity="0.12"/>
<stop offset="1" stop-color="#F2DEA9" stop-opacity="0"/>
</linearGradient>
<linearGradient id="paint2_linear_6742_267006" x1="25.76" y1="12.5486" x2="26.0835" y2="15.6028" gradientUnits="userSpaceOnUse">
<stop offset="0.06" stop-color="#F96C3D"/>
<stop offset="0.17" stop-color="#F78555" stop-opacity="0.78"/>
<stop offset="0.29" stop-color="#F69C6B" stop-opacity="0.57"/>
<stop offset="0.41" stop-color="#F4B07E" stop-opacity="0.4"/>
<stop offset="0.52" stop-color="#F3C18D" stop-opacity="0.25"/>
<stop offset="0.64" stop-color="#F2CD99" stop-opacity="0.14"/>
<stop offset="0.76" stop-color="#F2D6A2" stop-opacity="0.06"/>
<stop offset="0.88" stop-color="#F2DCA7" stop-opacity="0.02"/>
<stop offset="1" stop-color="#F2DEA9" stop-opacity="0"/>
</linearGradient>
<linearGradient id="paint3_linear_6742_267006" x1="20.9856" y1="0.527545" x2="23.3863" y2="11.2858" gradientUnits="userSpaceOnUse">
<stop offset="0.02" stop-color="#FDB4BC"/>
<stop offset="0.26" stop-color="#EF885C"/>
<stop offset="0.45" stop-color="#F79859"/>
<stop offset="0.55" stop-color="#F6AB74"/>
<stop offset="0.69" stop-color="#F5C698"/>
<stop offset="0.83" stop-color="#F1B38C"/>
<stop offset="1" stop-color="#EEA080"/>
</linearGradient>
<linearGradient id="paint4_linear_6742_267006" x1="19.3322" y1="7.56005" x2="24.9447" y2="0.564335" gradientUnits="userSpaceOnUse">
<stop offset="0.2" stop-color="#D15B46"/>
<stop offset="0.23" stop-color="#D3644D" stop-opacity="0.92"/>
<stop offset="0.34" stop-color="#DB8465" stop-opacity="0.68"/>
<stop offset="0.45" stop-color="#E2A07A" stop-opacity="0.47"/>
<stop offset="0.56" stop-color="#E8B68B" stop-opacity="0.3"/>
<stop offset="0.67" stop-color="#ECC798" stop-opacity="0.17"/>
<stop offset="0.78" stop-color="#EFD4A1" stop-opacity="0.08"/>
<stop offset="0.89" stop-color="#F1DBA7" stop-opacity="0.02"/>
<stop offset="1" stop-color="#F2DEA9" stop-opacity="0"/>
</linearGradient>
<linearGradient id="paint5_linear_6742_267006" x1="-1.52197" y1="12.7805" x2="11.5881" y2="6.88575" gradientUnits="userSpaceOnUse">
<stop offset="0.21" stop-color="#AF3153"/>
<stop offset="0.76" stop-color="#CA3550"/>
<stop offset="0.84" stop-color="#C23350"/>
<stop offset="0.96" stop-color="#BF3250"/>
</linearGradient>
<linearGradient id="paint6_linear_6742_267006" x1="10.4225" y1="2.79358" x2="18.5758" y2="0.488401" gradientUnits="userSpaceOnUse">
<stop offset="0.02" stop-color="#3B2538"/>
<stop offset="0.65" stop-color="#503249"/>
</linearGradient>
<linearGradient id="paint7_linear_6742_267006" x1="27.9442" y1="3.63583" x2="17.4665" y2="7.52631" gradientUnits="userSpaceOnUse">
<stop stop-color="#F55F35"/>
<stop offset="0.41" stop-color="#F8713E"/>
<stop offset="0.7" stop-color="#FB7E45"/>
<stop offset="0.77" stop-color="#F0643E"/>
<stop offset="0.85" stop-color="#E85039"/>
<stop offset="0.92" stop-color="#E34436"/>
<stop offset="1" stop-color="#E24135"/>
</linearGradient>
<linearGradient id="paint8_linear_6742_267006" x1="15.2467" y1="1.53102" x2="15.3132" y2="5.42533" gradientUnits="userSpaceOnUse">
<stop offset="0.39" stop-color="#D15B46"/>
<stop offset="0.44" stop-color="#D86C52" stop-opacity="0.87"/>
<stop offset="0.56" stop-color="#EA9772" stop-opacity="0.54"/>
<stop offset="0.67" stop-color="#FEC493" stop-opacity="0.2"/>
</linearGradient>
<linearGradient id="paint9_linear_6742_267006" x1="8.63184" y1="6.96465" x2="24.8993" y2="6.96465" gradientUnits="userSpaceOnUse">
<stop stop-color="#F8854E"/>
<stop offset="0.07" stop-color="#F88D56" stop-opacity="0.88"/>
<stop offset="0.2" stop-color="#F99B65" stop-opacity="0.68"/>
<stop offset="0.33" stop-color="#FAA671" stop-opacity="0.5"/>
<stop offset="0.46" stop-color="#FBB07B" stop-opacity="0.35"/>
<stop offset="0.59" stop-color="#FCB883" stop-opacity="0.24"/>
<stop offset="0.73" stop-color="#FCBD89" stop-opacity="0.16"/>
<stop offset="0.86" stop-color="#FCC08C" stop-opacity="0.12"/>
<stop offset="1" stop-color="#FDC28E" stop-opacity="0.1"/>
</linearGradient>
<linearGradient id="paint10_linear_6742_267006" x1="7.68449" y1="7.60977" x2="13.6704" y2="9.2" gradientUnits="userSpaceOnUse">
<stop stop-color="#A9342B"/>
<stop offset="0.08" stop-color="#B5382E" stop-opacity="0.84"/>
<stop offset="0.23" stop-color="#C83E33" stop-opacity="0.58"/>
<stop offset="0.38" stop-color="#D84337" stop-opacity="0.37"/>
<stop offset="0.54" stop-color="#E4473A" stop-opacity="0.21"/>
<stop offset="0.69" stop-color="#ED4A3D" stop-opacity="0.09"/>
<stop offset="0.84" stop-color="#F24C3E" stop-opacity="0.02"/>
<stop offset="1" stop-color="#F44D3F" stop-opacity="0"/>
</linearGradient>
<linearGradient id="paint11_linear_6742_267006" x1="3.96338" y1="16.0505" x2="6.20321" y2="14.8951" gradientUnits="userSpaceOnUse">
<stop stop-color="#FF5760"/>
<stop offset="0.17" stop-color="#FE7576"/>
<stop offset="0.39" stop-color="#FE958E"/>
<stop offset="0.51" stop-color="#FEA298"/>
<stop offset="0.53" stop-color="#FDA897"/>
<stop offset="0.61" stop-color="#FCB497"/>
<stop offset="0.69" stop-color="#FCB897"/>
<stop offset="0.88" stop-color="#F7A47A"/>
<stop offset="1" stop-color="#F08B55"/>
</linearGradient>
<linearGradient id="paint12_linear_6742_267006" x1="1.01935" y1="13.4201" x2="23.2678" y2="1.94527" gradientUnits="userSpaceOnUse">
<stop stop-color="#FF5760"/>
<stop offset="0.17" stop-color="#FE7576"/>
<stop offset="0.39" stop-color="#FE958E"/>
<stop offset="0.51" stop-color="#FEA298"/>
<stop offset="0.53" stop-color="#FDA897"/>
<stop offset="0.61" stop-color="#FCB497"/>
<stop offset="0.69" stop-color="#FCB897"/>
<stop offset="0.88" stop-color="#F7A47A"/>
<stop offset="1" stop-color="#F08B55"/>
</linearGradient>
<linearGradient id="paint13_linear_6742_267006" x1="17.5303" y1="5.10381" x2="24.8675" y2="5.10381" gradientUnits="userSpaceOnUse">
<stop offset="0.47" stop-color="#F8543B"/>
<stop offset="1" stop-color="#FEAA70"/>
</linearGradient>
<linearGradient id="paint14_linear_6742_267006" x1="15.3702" y1="5.96181" x2="24.988" y2="5.96181" gradientUnits="userSpaceOnUse">
<stop stop-color="#D64335"/>
<stop offset="0.6" stop-color="#FA9457"/>
<stop offset="1" stop-color="#FECA8A"/>
</linearGradient>
<linearGradient id="paint15_linear_6742_267006" x1="15.3691" y1="6.78484" x2="23.6877" y2="6.78484" gradientUnits="userSpaceOnUse">
<stop offset="0.24" stop-color="#D71924"/>
<stop offset="1" stop-color="#FE1E2B"/>
</linearGradient>
<linearGradient id="paint16_linear_6742_267006" x1="7.07672" y1="10.9084" x2="24.1624" y2="10.9084" gradientUnits="userSpaceOnUse">
<stop stop-color="#408DB4"/>
<stop offset="0.14" stop-color="#57A4C6"/>
<stop offset="0.31" stop-color="#6EB9D7"/>
<stop offset="0.5" stop-color="#7DC9E3"/>
<stop offset="0.71" stop-color="#87D2EA"/>
<stop offset="1" stop-color="#8AD5ED"/>
</linearGradient>
<linearGradient id="paint17_linear_6742_267006" x1="6.78558" y1="10.8174" x2="24.1063" y2="10.8174" gradientUnits="userSpaceOnUse">
<stop stop-color="#0E6BA0"/>
<stop offset="0.18" stop-color="#177AAE"/>
<stop offset="0.38" stop-color="#1D84B7"/>
<stop offset="0.66" stop-color="#1F87BA"/>
<stop offset="0.77" stop-color="#1B82B5"/>
<stop offset="0.9" stop-color="#1176A7"/>
<stop offset="1" stop-color="#056998"/>
</linearGradient>
<linearGradient id="paint18_linear_6742_267006" x1="14.5271" y1="26.1255" x2="20.0649" y2="23.034" gradientUnits="userSpaceOnUse">
<stop offset="0.1" stop-color="#0E3A5E" stop-opacity="0.92"/>
<stop offset="0.2" stop-color="#114971" stop-opacity="0.69"/>
<stop offset="0.36" stop-color="#155E8A" stop-opacity="0.39"/>
<stop offset="0.52" stop-color="#186C9B" stop-opacity="0.17"/>
<stop offset="0.68" stop-color="#1A75A6" stop-opacity="0.04"/>
<stop offset="0.83" stop-color="#1B78AA" stop-opacity="0"/>
</linearGradient>
<linearGradient id="paint19_linear_6742_267006" x1="13.8204" y1="24.2898" x2="20.1621" y2="24.2898" gradientUnits="userSpaceOnUse">
<stop offset="0.01" stop-color="#0E3A5E" stop-opacity="0.92"/>
<stop offset="0.1" stop-color="#114B73" stop-opacity="0.66"/>
<stop offset="0.21" stop-color="#155F8B" stop-opacity="0.37"/>
<stop offset="0.32" stop-color="#186C9C" stop-opacity="0.16"/>
<stop offset="0.44" stop-color="#1A75A6" stop-opacity="0.04"/>
<stop offset="0.56" stop-color="#1B78AA" stop-opacity="0"/>
</linearGradient>
<linearGradient id="paint20_linear_6742_267006" x1="17.3972" y1="26.941" x2="18.0874" y2="20.4961" gradientUnits="userSpaceOnUse">
<stop stop-color="#3081AD"/>
<stop offset="0.07" stop-color="#3386B0"/>
<stop offset="0.36" stop-color="#3D99BC"/>
<stop offset="0.67" stop-color="#43A4C2"/>
<stop offset="1" stop-color="#46A8C5"/>
</linearGradient>
<linearGradient id="paint21_linear_6742_267006" x1="14.3652" y1="23.7692" x2="17.0224" y2="23.7692" gradientUnits="userSpaceOnUse">
<stop offset="0.47" stop-color="#F8543B"/>
<stop offset="1" stop-color="#FEAA70"/>
</linearGradient>
<linearGradient id="paint22_linear_6742_267006" x1="4.13875" y1="16.6631" x2="15.9645" y2="16.6631" gradientUnits="userSpaceOnUse">
<stop stop-color="#BCE1E8"/>
<stop offset="0.03" stop-color="#BEE2E9"/>
<stop offset="0.22" stop-color="#D5EDF1"/>
<stop offset="0.43" stop-color="#E4F5F7"/>
<stop offset="0.67" stop-color="#EEF9FA"/>
<stop offset="1" stop-color="#F1FBFC"/>
</linearGradient>
<linearGradient id="paint23_linear_6742_267006" x1="5.72379" y1="18.7096" x2="15.6814" y2="13.8598" gradientUnits="userSpaceOnUse">
<stop stop-color="#A6CFD4"/>
<stop offset="0.03" stop-color="#ABD2D6" stop-opacity="0.93"/>
<stop offset="0.11" stop-color="#BBDBDF" stop-opacity="0.71"/>
<stop offset="0.21" stop-color="#C9E4E7" stop-opacity="0.52"/>
<stop offset="0.31" stop-color="#D5EBED" stop-opacity="0.36"/>
<stop offset="0.41" stop-color="#DFF0F2" stop-opacity="0.23"/>
<stop offset="0.52" stop-color="#E7F5F6" stop-opacity="0.13"/>
<stop offset="0.64" stop-color="#ECF8F9" stop-opacity="0.06"/>
<stop offset="0.79" stop-color="#F0FAFB" stop-opacity="0.01"/>
<stop offset="1" stop-color="#F1FBFC" stop-opacity="0"/>
</linearGradient>
<linearGradient id="paint24_linear_6742_267006" x1="8.12397" y1="14.1969" x2="10.5802" y2="16.6443" gradientUnits="userSpaceOnUse">
<stop stop-color="#A6CFD4"/>
<stop offset="0.03" stop-color="#ABD2D6" stop-opacity="0.93"/>
<stop offset="0.11" stop-color="#BBDBDF" stop-opacity="0.71"/>
<stop offset="0.21" stop-color="#C9E4E7" stop-opacity="0.52"/>
<stop offset="0.31" stop-color="#D5EBED" stop-opacity="0.36"/>
<stop offset="0.41" stop-color="#DFF0F2" stop-opacity="0.23"/>
<stop offset="0.52" stop-color="#E7F5F6" stop-opacity="0.13"/>
<stop offset="0.64" stop-color="#ECF8F9" stop-opacity="0.06"/>
<stop offset="0.79" stop-color="#F0FAFB" stop-opacity="0.01"/>
<stop offset="1" stop-color="#F1FBFC" stop-opacity="0"/>
</linearGradient>
<linearGradient id="paint25_linear_6742_267006" x1="5.56153" y1="18.2664" x2="13.505" y2="11.6628" gradientUnits="userSpaceOnUse">
<stop stop-color="#B9E9F9"/>
<stop offset="0.13" stop-color="#C4EDFB"/>
<stop offset="0.32" stop-color="#CEF0FD"/>
<stop offset="0.58" stop-color="#D1F2FE"/>
<stop offset="1" stop-color="#F0FBFC"/>
</linearGradient>
<linearGradient id="paint26_linear_6742_267006" x1="4.41742" y1="20.7204" x2="4.48386" y2="20.7204" gradientUnits="userSpaceOnUse">
<stop stop-color="#BCE1E8"/>
<stop offset="0.03" stop-color="#BEE2E9"/>
<stop offset="0.22" stop-color="#D5EDF1"/>
<stop offset="0.43" stop-color="#E4F5F7"/>
<stop offset="0.67" stop-color="#EEF9FA"/>
<stop offset="1" stop-color="#F1FBFC"/>
</linearGradient>
<linearGradient id="paint27_linear_6742_267006" x1="4.35254" y1="20.4601" x2="4.41404" y2="20.4601" gradientUnits="userSpaceOnUse">
<stop stop-color="#BCE1E8"/>
<stop offset="0.03" stop-color="#BEE2E9"/>
<stop offset="0.22" stop-color="#D5EDF1"/>
<stop offset="0.43" stop-color="#E4F5F7"/>
<stop offset="0.67" stop-color="#EEF9FA"/>
<stop offset="1" stop-color="#F1FBFC"/>
</linearGradient>
<linearGradient id="paint28_linear_6742_267006" x1="4.29785" y1="20.2065" x2="4.35166" y2="20.2065" gradientUnits="userSpaceOnUse">
<stop stop-color="#BCE1E8"/>
<stop offset="0.03" stop-color="#BEE2E9"/>
<stop offset="0.22" stop-color="#D5EDF1"/>
<stop offset="0.43" stop-color="#E4F5F7"/>
<stop offset="0.67" stop-color="#EEF9FA"/>
<stop offset="1" stop-color="#F1FBFC"/>
</linearGradient>
<linearGradient id="paint29_linear_6742_267006" x1="4.57031" y1="21.2491" x2="4.64389" y2="21.2491" gradientUnits="userSpaceOnUse">
<stop stop-color="#BCE1E8"/>
<stop offset="0.03" stop-color="#BEE2E9"/>
<stop offset="0.22" stop-color="#D5EDF1"/>
<stop offset="0.43" stop-color="#E4F5F7"/>
<stop offset="0.67" stop-color="#EEF9FA"/>
<stop offset="1" stop-color="#F1FBFC"/>
</linearGradient>
<linearGradient id="paint30_linear_6742_267006" x1="4.49121" y1="20.9851" x2="4.56095" y2="20.9851" gradientUnits="userSpaceOnUse">
<stop stop-color="#BCE1E8"/>
<stop offset="0.03" stop-color="#BEE2E9"/>
<stop offset="0.22" stop-color="#D5EDF1"/>
<stop offset="0.43" stop-color="#E4F5F7"/>
<stop offset="0.67" stop-color="#EEF9FA"/>
<stop offset="1" stop-color="#F1FBFC"/>
</linearGradient>
<linearGradient id="paint31_linear_6742_267006" x1="4.1377" y1="18.5826" x2="4.13934" y2="18.5826" gradientUnits="userSpaceOnUse">
<stop stop-color="#BCE1E8"/>
<stop offset="0.03" stop-color="#BEE2E9"/>
<stop offset="0.22" stop-color="#D5EDF1"/>
<stop offset="0.43" stop-color="#E4F5F7"/>
<stop offset="0.67" stop-color="#EEF9FA"/>
<stop offset="1" stop-color="#F1FBFC"/>
</linearGradient>
<linearGradient id="paint32_linear_6742_267006" x1="4.15094" y1="19.1273" x2="4.16961" y2="19.1273" gradientUnits="userSpaceOnUse">
<stop stop-color="#BCE1E8"/>
<stop offset="0.03" stop-color="#BEE2E9"/>
<stop offset="0.22" stop-color="#D5EDF1"/>
<stop offset="0.43" stop-color="#E4F5F7"/>
<stop offset="0.67" stop-color="#EEF9FA"/>
<stop offset="1" stop-color="#F1FBFC"/>
</linearGradient>
<linearGradient id="paint33_linear_6742_267006" x1="4.20605" y1="19.6706" x2="4.24175" y2="19.6706" gradientUnits="userSpaceOnUse">
<stop stop-color="#BCE1E8"/>
<stop offset="0.03" stop-color="#BEE2E9"/>
<stop offset="0.22" stop-color="#D5EDF1"/>
<stop offset="0.43" stop-color="#E4F5F7"/>
<stop offset="0.67" stop-color="#EEF9FA"/>
<stop offset="1" stop-color="#F1FBFC"/>
</linearGradient>
<linearGradient id="paint34_linear_6742_267006" x1="12.2773" y1="10.7233" x2="12.4355" y2="10.7233" gradientUnits="userSpaceOnUse">
<stop stop-color="#BCE1E8"/>
<stop offset="0.03" stop-color="#BEE2E9"/>
<stop offset="0.22" stop-color="#D5EDF1"/>
<stop offset="0.43" stop-color="#E4F5F7"/>
<stop offset="0.67" stop-color="#EEF9FA"/>
<stop offset="1" stop-color="#F1FBFC"/>
</linearGradient>
<linearGradient id="paint35_linear_6742_267006" x1="12.6201" y1="10.6625" x2="12.7667" y2="10.6625" gradientUnits="userSpaceOnUse">
<stop stop-color="#BCE1E8"/>
<stop offset="0.03" stop-color="#BEE2E9"/>
<stop offset="0.22" stop-color="#D5EDF1"/>
<stop offset="0.43" stop-color="#E4F5F7"/>
<stop offset="0.67" stop-color="#EEF9FA"/>
<stop offset="1" stop-color="#F1FBFC"/>
</linearGradient>
<linearGradient id="paint36_linear_6742_267006" x1="12.8945" y1="10.6176" x2="13.0549" y2="10.6176" gradientUnits="userSpaceOnUse">
<stop stop-color="#BCE1E8"/>
<stop offset="0.03" stop-color="#BEE2E9"/>
<stop offset="0.22" stop-color="#D5EDF1"/>
<stop offset="0.43" stop-color="#E4F5F7"/>
<stop offset="0.67" stop-color="#EEF9FA"/>
<stop offset="1" stop-color="#F1FBFC"/>
</linearGradient>
<linearGradient id="paint37_linear_6742_267006" x1="11.9687" y1="10.7894" x2="12.0791" y2="10.7894" gradientUnits="userSpaceOnUse">
<stop stop-color="#BCE1E8"/>
<stop offset="0.03" stop-color="#BEE2E9"/>
<stop offset="0.22" stop-color="#D5EDF1"/>
<stop offset="0.43" stop-color="#E4F5F7"/>
<stop offset="0.67" stop-color="#EEF9FA"/>
<stop offset="1" stop-color="#F1FBFC"/>
</linearGradient>
<linearGradient id="paint38_linear_6742_267006" x1="13.0879" y1="10.5738" x2="13.4811" y2="10.5738" gradientUnits="userSpaceOnUse">
<stop stop-color="#BCE1E8"/>
<stop offset="0.03" stop-color="#BEE2E9"/>
<stop offset="0.22" stop-color="#D5EDF1"/>
<stop offset="0.43" stop-color="#E4F5F7"/>
<stop offset="0.67" stop-color="#EEF9FA"/>
<stop offset="1" stop-color="#F1FBFC"/>
</linearGradient>
<linearGradient id="paint39_linear_6742_267006" x1="13.5498" y1="10.5262" x2="13.7546" y2="10.5262" gradientUnits="userSpaceOnUse">
<stop stop-color="#BCE1E8"/>
<stop offset="0.03" stop-color="#BEE2E9"/>
<stop offset="0.22" stop-color="#D5EDF1"/>
<stop offset="0.43" stop-color="#E4F5F7"/>
<stop offset="0.67" stop-color="#EEF9FA"/>
<stop offset="1" stop-color="#F1FBFC"/>
</linearGradient>
<linearGradient id="paint40_linear_6742_267006" x1="11.335" y1="10.9401" x2="11.4085" y2="10.9401" gradientUnits="userSpaceOnUse">
<stop stop-color="#BCE1E8"/>
<stop offset="0.03" stop-color="#BEE2E9"/>
<stop offset="0.22" stop-color="#D5EDF1"/>
<stop offset="0.43" stop-color="#E4F5F7"/>
<stop offset="0.67" stop-color="#EEF9FA"/>
<stop offset="1" stop-color="#F1FBFC"/>
</linearGradient>
<linearGradient id="paint41_linear_6742_267006" x1="11.0347" y1="11.0193" x2="11.1165" y2="11.0193" gradientUnits="userSpaceOnUse">
<stop stop-color="#BCE1E8"/>
<stop offset="0.03" stop-color="#BEE2E9"/>
<stop offset="0.22" stop-color="#D5EDF1"/>
<stop offset="0.43" stop-color="#E4F5F7"/>
<stop offset="0.67" stop-color="#EEF9FA"/>
<stop offset="1" stop-color="#F1FBFC"/>
</linearGradient>
<linearGradient id="paint42_linear_6742_267006" x1="10.1713" y1="12.0441" x2="16.9183" y2="12.0441" gradientUnits="userSpaceOnUse">
<stop offset="0.1" stop-color="#096390"/>
<stop offset="0.14" stop-color="#18709A"/>
<stop offset="0.25" stop-color="#3A8FB4"/>
<stop offset="0.37" stop-color="#57A8C8"/>
<stop offset="0.49" stop-color="#6EBCD8"/>
<stop offset="0.63" stop-color="#7DCAE4"/>
<stop offset="0.79" stop-color="#87D2EA"/>
<stop offset="1" stop-color="#8AD5ED"/>
</linearGradient>
<linearGradient id="paint43_linear_6742_267006" x1="5.49685" y1="22.7335" x2="18.015" y2="15.5714" gradientUnits="userSpaceOnUse">
<stop stop-color="#045888"/>
<stop offset="0.27" stop-color="#1B78AA"/>
<stop offset="0.41" stop-color="#1F7CAD"/>
<stop offset="0.58" stop-color="#2D89B8"/>
<stop offset="0.76" stop-color="#439FCB"/>
<stop offset="0.94" stop-color="#63BEE4"/>
<stop offset="1" stop-color="#6FCAEE"/>
</linearGradient>
<linearGradient id="paint44_linear_6742_267006" x1="5.08831" y1="18.4065" x2="14.3211" y2="19.3493" gradientUnits="userSpaceOnUse">
<stop stop-color="#0D3659"/>
<stop offset="0.27" stop-color="#1B78AA" stop-opacity="0"/>
</linearGradient>
<linearGradient id="paint45_linear_6742_267006" x1="8.10679" y1="14.7554" x2="11.0868" y2="18.7101" gradientUnits="userSpaceOnUse">
<stop offset="0.15" stop-color="#0D3659"/>
<stop offset="0.62" stop-color="#1B78AA" stop-opacity="0"/>
</linearGradient>
<linearGradient id="paint46_linear_6742_267006" x1="9.37375" y1="19.5337" x2="20.1298" y2="9.81764" gradientUnits="userSpaceOnUse">
<stop stop-color="#0F6F7E"/>
<stop offset="0.13" stop-color="#288382"/>
<stop offset="0.26" stop-color="#3B9286"/>
<stop offset="0.4" stop-color="#469B88"/>
<stop offset="0.55" stop-color="#4A9E89"/>
<stop offset="0.56" stop-color="#52A28A"/>
<stop offset="0.62" stop-color="#6EAF8E"/>
<stop offset="0.68" stop-color="#85BA92"/>
<stop offset="0.75" stop-color="#94C295"/>
<stop offset="0.83" stop-color="#9EC696"/>
<stop offset="0.94" stop-color="#A1C897"/>
</linearGradient>
<linearGradient id="paint47_linear_6742_267006" x1="11.2693" y1="15.3395" x2="15.1054" y2="18.7418" gradientUnits="userSpaceOnUse">
<stop offset="0.09" stop-color="#163F50"/>
<stop offset="0.17" stop-color="#23585F" stop-opacity="0.74"/>
<stop offset="0.29" stop-color="#347671" stop-opacity="0.41"/>
<stop offset="0.41" stop-color="#408C7E" stop-opacity="0.18"/>
<stop offset="0.54" stop-color="#479986" stop-opacity="0.05"/>
<stop offset="0.68" stop-color="#4A9E89" stop-opacity="0"/>
</linearGradient>
<linearGradient id="paint48_linear_6742_267006" x1="7.4091" y1="22.3964" x2="22.3444" y2="22.3964" gradientUnits="userSpaceOnUse">
<stop stop-color="#C6EEFB"/>
<stop offset="0.13" stop-color="#BAEAFA"/>
<stop offset="0.32" stop-color="#B0E7FA"/>
<stop offset="0.58" stop-color="#AEE7FA"/>
<stop offset="1" stop-color="#F0FBFC"/>
</linearGradient>
<linearGradient id="paint49_linear_6742_267006" x1="9.45045" y1="26.0882" x2="16.0179" y2="22.7683" gradientUnits="userSpaceOnUse">
<stop stop-color="#0E3A5E" stop-opacity="0.92"/>
<stop offset="0.14" stop-color="#114971" stop-opacity="0.69"/>
<stop offset="0.35" stop-color="#155E8A" stop-opacity="0.39"/>
<stop offset="0.57" stop-color="#186C9B" stop-opacity="0.17"/>
<stop offset="0.79" stop-color="#1A75A6" stop-opacity="0.04"/>
<stop offset="1" stop-color="#1B78AA" stop-opacity="0"/>
</linearGradient>
<linearGradient id="paint50_linear_6742_267006" x1="9.72391" y1="21.1078" x2="15.5615" y2="25.5885" gradientUnits="userSpaceOnUse">
<stop offset="0.05" stop-color="#0E3A5E" stop-opacity="0.92"/>
<stop offset="0.11" stop-color="#114971" stop-opacity="0.69"/>
<stop offset="0.19" stop-color="#155E8A" stop-opacity="0.39"/>
<stop offset="0.27" stop-color="#186C9B" stop-opacity="0.17"/>
<stop offset="0.35" stop-color="#1A75A6" stop-opacity="0.04"/>
<stop offset="0.43" stop-color="#1B78AA" stop-opacity="0"/>
</linearGradient>
<linearGradient id="paint51_linear_6742_267006" x1="16.9342" y1="30.1228" x2="23.6114" y2="13.3968" gradientUnits="userSpaceOnUse">
<stop offset="0.1" stop-color="#3985C9"/>
<stop offset="0.15" stop-color="#54A1D5"/>
<stop offset="0.19" stop-color="#6AB8DE"/>
<stop offset="0.24" stop-color="#7AC7E4"/>
<stop offset="0.29" stop-color="#83D1E8"/>
<stop offset="0.37" stop-color="#86D4EA"/>
<stop offset="0.6" stop-color="#D7D9BC" stop-opacity="0"/>
</linearGradient>
<radialGradient id="paint52_radial_6742_267006" cx="0" cy="0" r="1" gradientUnits="userSpaceOnUse" gradientTransform="translate(12.1662 23.4735) scale(12.259 12.259)">
<stop offset="0.05" stop-color="#0E3A5E" stop-opacity="0.92"/>
<stop offset="0.11" stop-color="#114971" stop-opacity="0.69"/>
<stop offset="0.19" stop-color="#155E8A" stop-opacity="0.39"/>
<stop offset="0.27" stop-color="#186C9B" stop-opacity="0.17"/>
<stop offset="0.35" stop-color="#1A75A6" stop-opacity="0.04"/>
<stop offset="0.43" stop-color="#1B78AA" stop-opacity="0"/>
</radialGradient>
<linearGradient id="paint53_linear_6742_267006" x1="21.4346" y1="27.4011" x2="21.5043" y2="27.4011" gradientUnits="userSpaceOnUse">
<stop stop-color="#3FA7E9"/>
<stop offset="0.14" stop-color="#61B7EC"/>
<stop offset="0.35" stop-color="#93CFF2"/>
<stop offset="0.55" stop-color="#BBE2F6"/>
<stop offset="0.73" stop-color="#D8EFF9"/>
<stop offset="0.88" stop-color="#E9F8FB"/>
<stop offset="1" stop-color="#F0FBFC"/>
</linearGradient>
<linearGradient id="paint54_linear_6742_267006" x1="11.5445" y1="23.7639" x2="22.8831" y2="23.7639" gradientUnits="userSpaceOnUse">
<stop stop-color="#3FA7E9"/>
<stop offset="0.14" stop-color="#61B7EC"/>
<stop offset="0.35" stop-color="#93CFF2"/>
<stop offset="0.55" stop-color="#BBE2F6"/>
<stop offset="0.73" stop-color="#D8EFF9"/>
<stop offset="0.88" stop-color="#E9F8FB"/>
<stop offset="1" stop-color="#F0FBFC"/>
</linearGradient>
<linearGradient id="paint55_linear_6742_267006" x1="22.437" y1="31.8904" x2="22.4446" y2="31.8904" gradientUnits="userSpaceOnUse">
<stop stop-color="#3FA7E9"/>
<stop offset="0.14" stop-color="#61B7EC"/>
<stop offset="0.35" stop-color="#93CFF2"/>
<stop offset="0.55" stop-color="#BBE2F6"/>
<stop offset="0.73" stop-color="#D8EFF9"/>
<stop offset="0.88" stop-color="#E9F8FB"/>
<stop offset="1" stop-color="#F0FBFC"/>
</linearGradient>
<linearGradient id="paint56_linear_6742_267006" x1="13.7914" y1="29.3533" x2="22.7469" y2="29.3533" gradientUnits="userSpaceOnUse">
<stop offset="0.09" stop-color="#2E5D8E"/>
<stop offset="0.26" stop-color="#356C97"/>
<stop offset="0.46" stop-color="#3A779D"/>
<stop offset="0.68" stop-color="#3C7BA0"/>
</linearGradient>
<linearGradient id="paint57_linear_6742_267006" x1="12.1022" y1="24.9133" x2="21.7496" y2="32.5235" gradientUnits="userSpaceOnUse">
<stop offset="0.4" stop-color="#445998"/>
<stop offset="0.42" stop-color="#415695"/>
<stop offset="0.53" stop-color="#31447E"/>
<stop offset="0.66" stop-color="#25376F"/>
<stop offset="0.8" stop-color="#1E3065"/>
<stop offset="1" stop-color="#1C2E63"/>
</linearGradient>
<linearGradient id="paint58_linear_6742_267006" x1="18.3447" y1="15.3793" x2="22.4021" y2="15.3793" gradientUnits="userSpaceOnUse">
<stop offset="0.24" stop-color="#D71924"/>
<stop offset="1" stop-color="#FE1E2B"/>
</linearGradient>
<clipPath id="clip0_6742_267006">
<rect width="32" height="32" fill="white"/>
</clipPath>
</defs>
</svg>
