<?xml version="1.0" encoding="UTF-8"?>
<svg id="Layer_1" xmlns="http://www.w3.org/2000/svg" viewBox="0 0 603 145">
  <path d="M84.5,104.75c-3.48,0-6.94-.34-10.36-1.01-3.37-.62-6.15-1.46-8.34-2.53v-9.18c2.81,1.35,5.76,2.36,8.85,3.03,3.09.67,6.12,1.01,9.1,1.01,3.76,0,6.63-.7,8.59-2.11,1.97-1.4,2.95-3.34,2.95-5.81,0-1.74-.45-3.17-1.35-4.3-.9-1.18-2.22-2.19-3.96-3.03-1.74-.9-4.41-2.05-8-3.46-5.5-2.25-9.49-4.75-11.96-7.5-2.47-2.75-3.71-6.18-3.71-10.28,0-3.2.87-6.04,2.61-8.51,1.74-2.47,4.19-4.38,7.33-5.73,3.15-1.35,6.77-2.02,10.87-2.02,3.37,0,6.35.28,8.93.84,2.64.51,5.22,1.32,7.75,2.44v8.93c-4.89-2.36-9.83-3.54-14.83-3.54-3.59,0-6.38.67-8.34,2.02-1.97,1.29-2.95,3.15-2.95,5.56,0,1.74.45,3.17,1.35,4.3.9,1.07,2.08,1.99,3.54,2.78,1.52.73,4.21,1.91,8.09,3.54,3.93,1.63,7.02,3.23,9.27,4.8,2.3,1.57,4.02,3.43,5.14,5.56,1.18,2.08,1.77,4.63,1.77,7.67,0,5.22-1.88,9.3-5.64,12.22-3.76,2.87-9.32,4.3-16.68,4.3Z"/>
  <path d="M115.28,41.22h10.62v39.6l16.09-17.78h12.47l-18.03,19.8,20.05,20.64h-12.47l-18.12-18.71v18.71h-10.62v-62.26Z"/>
  <path d="M170.8,120.17c-1.46,0-3.01-.11-4.63-.34-1.57-.17-2.81-.42-3.71-.76v-8.09c1.4.56,3.15.84,5.22.84s3.74-.48,4.8-1.43c1.07-.96,1.99-2.47,2.78-4.55l1.6-4.21-17.44-38.59h10.7l12.47,29.49,11.71-29.49h10.62l-17.69,44.06c-1.8,4.44-3.99,7.72-6.57,9.86-2.53,2.13-5.81,3.2-9.86,3.2Z"/>
  <path d="M211.63,44.6h19.71c6.4,0,11.96,1.18,16.68,3.54,4.72,2.36,8.34,5.73,10.87,10.11,2.53,4.38,3.79,9.55,3.79,15.5,0,9.77-2.84,17.19-8.51,22.24-5.67,5-13.59,7.5-23.76,7.5h-18.79v-58.89ZM230.59,94.64c6.85,0,12.1-1.83,15.76-5.48s5.56-8.85,5.56-15.42c0-3.99-.82-7.5-2.44-10.53-1.63-3.09-3.96-5.48-6.99-7.16-3.03-1.74-6.63-2.61-10.79-2.61h-9.35v41.2h8.26Z"/>
  <path d="M293.87,104.75c-7.53,0-13.48-1.88-17.86-5.65-4.38-3.76-6.57-9.01-6.57-15.76s1.94-11.88,5.81-15.75c3.88-3.88,9.41-5.81,16.6-5.81,4.72,0,8.73.9,12.05,2.7,3.37,1.8,5.9,4.27,7.58,7.41,1.68,3.09,2.53,6.63,2.53,10.62v4.89h-34.46c.73,6.01,5.95,9.01,15.67,9.01,2.58,0,5.22-.22,7.92-.67,2.7-.45,5.05-1.07,7.08-1.85v8.17c-1.91.79-4.38,1.43-7.41,1.94-2.98.51-5.95.76-8.93.76ZM303.98,80.15c-.11-3.2-1.26-5.67-3.45-7.41-2.13-1.74-5.08-2.61-8.85-2.61s-6.63.9-8.76,2.7c-2.13,1.8-3.26,4.24-3.37,7.33h24.43Z"/>
  <path d="M344.45,104.75c-4.72,0-8.87-.84-12.47-2.53-3.54-1.68-6.29-4.13-8.26-7.33-1.97-3.2-2.95-7.05-2.95-11.54s.98-8.34,2.95-11.54c2.02-3.26,4.8-5.73,8.34-7.42,3.6-1.74,7.78-2.61,12.55-2.61,6.29,0,11.32,1.24,15.08,3.71v8.51c-3.65-2.58-8.31-3.88-13.99-3.88-4.32,0-7.78,1.1-10.36,3.28-2.53,2.14-3.79,5.45-3.79,9.94s1.26,7.72,3.79,9.86c2.58,2.13,5.98,3.2,10.19,3.2,5.67,0,10.56-1.35,14.66-4.04v8.43c-2.02,1.35-4.33,2.33-6.91,2.95-2.53.67-5.48,1.01-8.85,1.01Z"/>
  <path d="M368.62,41.22h10.62v39.6l16.09-17.78h12.47l-18.03,19.8,20.05,20.64h-12.47l-18.11-18.71v18.71h-10.62v-62.26Z"/>
  <path d="M420.84,103.49c-1.18,0-2.19-.39-3.03-1.18-.84-.84-1.26-1.85-1.26-3.03s.42-2.27,1.26-3.12c.84-.84,1.85-1.26,3.03-1.26s2.19.42,3.03,1.26c.84.84,1.26,1.88,1.26,3.12s-.42,2.19-1.26,3.03c-.84.79-1.85,1.18-3.03,1.18Z"/>
  <path d="M448.36,104.75c-4.83,0-8.79-1.26-11.88-3.79-3.09-2.58-4.63-6.04-4.63-10.36s1.46-8,4.38-10.53c2.92-2.53,7.02-3.79,12.3-3.79s9.52,1.04,13.23,3.12v-1.1c0-2.87-.9-4.94-2.7-6.24-1.74-1.29-4.58-1.94-8.51-1.94-2.47,0-4.91.25-7.33.76-2.41.45-4.55,1.09-6.4,1.94v-8.34c1.68-.79,3.93-1.43,6.74-1.94,2.86-.51,5.62-.76,8.26-.76,7.02,0,12.22,1.52,15.59,4.55,3.37,2.98,5.06,7.13,5.06,12.47v24.69h-10.03v-3.96c-1.74,1.68-3.74,2.98-5.98,3.88-2.19.9-4.89,1.35-8.09,1.35ZM450.98,97c2.36,0,4.49-.45,6.4-1.35,1.91-.95,3.37-2.25,4.38-3.88v-4.46c-3.09-2.19-6.63-3.29-10.61-3.29-5.67,0-8.51,2.19-8.51,6.57,0,2.13.7,3.74,2.11,4.8,1.46,1.07,3.54,1.6,6.23,1.6Z"/>
  <path d="M488.14,55.97c-1.68,0-3.12-.56-4.3-1.69-1.12-1.12-1.68-2.53-1.68-4.21s.56-3.09,1.68-4.21c1.18-1.18,2.61-1.77,4.3-1.77s3.12.59,4.3,1.77c1.18,1.12,1.77,2.53,1.77,4.21s-.59,3.09-1.77,4.21c-1.18,1.12-2.61,1.69-4.3,1.69ZM482.75,63.05h10.78v40.44h-10.78v-40.44Z"/>
  <path d="M508.86,39.49v-13.3h-4.92v-4.19h14.17v4.19h-4.19v13.3h-5.06Z"/>
  <path d="M521.43,39.49v-16.77h5.78l3.61,10.7c0,.29.43.29.58,0l3.9-10.7h4.48v16.77h-3.9v-10.12c0-.29-.43-.29-.58,0l-2.6,10.12h-3.47l-3.61-9.83c-.15-.58-.87-.43-.87.14v9.69h-3.33Z"/>
</svg>